<svg xmlns="http://www.w3.org/2000/svg" viewBox="0 0 762 762" fill="none" shape-rendering="auto"><metadata xmlns:rdf="http://www.w3.org/1999/02/22-rdf-syntax-ns#" xmlns:xsi="http://www.w3.org/2001/XMLSchema-instance" xmlns:dc="http://purl.org/dc/elements/1.1/" xmlns:dcterms="http://purl.org/dc/terms/"><rdf:RDF><rdf:Description><dc:title>Adventurer</dc:title><dc:creator>Lisa Wischofsky</dc:creator><dc:source xsi:type="dcterms:URI">https://www.figma.com/community/file/1184595184137881796</dc:source><dcterms:license xsi:type="dcterms:URI">https://creativecommons.org/licenses/by/4.0/</dcterms:license><dc:rights>Remix of „Adventurer” (https://www.figma.com/community/file/1184595184137881796) by „Lisa Wischofsky”, licensed under „CC BY 4.0” (https://creativecommons.org/licenses/by/4.0/)</dc:rights></rdf:Description></rdf:RDF></metadata><mask id="viewboxMask"><rect width="762" height="762" rx="0" ry="0" x="0" y="0" fill="#fff" /></mask><g mask="url(#viewboxMask)"><path d="M396 164.8a224.8 224.8 0 0 1 104.8 42.4c6.2 4.9 12.5 9.4 18 15a225.4 225.4 0 0 1 71.8 149 58.5 58.5 0 0 1 50.9 42.2 71 71 0 0 1-27.6 76.5c-11 7.7-24.5 12-38 11.7-5 0-10-1.6-15-1.8-1.9 2.2-3.3 4.9-4.8 7.3A223.3 223.3 0 0 1 389 609.8c-11 .7-21.9 2-33 .7a223.7 223.7 0 0 1-178.8-342.3A223.4 223.4 0 0 1 352 163.5c14.6-1.4 29.4-.3 44 1.3Z" fill="#000"/><path fill-rule="evenodd" clip-rule="evenodd" d="M498.8 213.2A216 216 0 0 0 363 169c-13-.2-26.2 1.6-39 4a218 218 0 0 0-113.6 365.5 218.5 218.5 0 0 0 260.4 40.2c35-18.8 64.2-47.3 84.4-81.5l-3-1.6c-2.8-1.4-5.7-3-8-5-2.2-2-.3-5.8 2.7-4.7 1.5.7 3 1.6 4.4 2.4a55 55 0 0 0 59.6-3.6 64.5 64.5 0 0 0 25-69.8 53.1 53.1 0 0 0-24-31 52.6 52.6 0 0 0-47-2.8c-1.6.8-3.4 1.5-5 1.3-2.5-.2-2.8-4.2-.6-5.2 8-4 16.5-5.6 25.4-6.4a217 217 0 0 0-72-146.4c-4.4-4-8.7-8.1-13.9-11.3Zm107.6 196.2c2-1.2 1.3-5.1-1.4-5-2 0-4.2.8-6.2 1.6l-1.4.4a95.1 95.1 0 0 0-25.5 12.4c-2.2 2-2.2 4.4.1 6.2a92 92 0 0 0 5.2 2.8 36 36 0 0 1 13 9.2c-.2 1.9-2 3.4-3.4 4.5l-.2.2c-3.9 3-8.8 5-13.6 7-2.5 1-4.9 2-7.1 3.1-1.7.8-2.6 2.2-1.6 3.9 1 2 3.2 1.1 5 .5l.6-.2 5.4-2.3c5.4-2.3 11-4.5 15.4-8 2.7-2.1 5.1-5.1 5.4-8.7-.5-3.4-2.7-5.7-5.3-7.8a83 83 0 0 0-11.6-7.2l-1.1-.6c5.4-3 10.8-5.6 16.6-7.7l5-1.7a52 52 0 0 0 6.7-2.6Z" fill="#763900"/><g transform="translate(-161 -83)"><path d="M550.3 424.4a65.4 65.4 0 1 1 13 130 65.4 65.4 0 0 1-13-130Z" fill="#000"/><path d="M549.3 430.3a59.7 59.7 0 1 1 15.1 118.3 59.7 59.7 0 0 1-15.1-118.3Z" fill="#fff"/><path d="M381.2 447.1a55.3 55.3 0 0 1 60 45.9A54.9 54.9 0 0 1 341 532a57 57 0 0 1-9.1-28 55.1 55.1 0 0 1 49.4-57Z" fill="#000"/><path d="M376.5 453.7a49.3 49.3 0 1 1 20.8 96.4 49.3 49.3 0 0 1-20.8-96.4Z" fill="#fff"/><path d="M576.4 464.4a24.7 24.7 0 0 1 17.7 1.5c10 4.7 16.7 17.4 12.9 28.1a24.3 24.3 0 0 1-36.6 14.6 24.5 24.5 0 0 1 6-44.2ZM408.5 478.5c12.7-1.6 25 8.5 25.3 21.5 1 12.4-9.3 24.2-21.8 24.3a23 23 0 0 1-23.9-22.3 22.8 22.8 0 0 1 20.4-23.5Z" fill="#000"/></g><g transform="translate(-161 -83)"><path d="M545 378.5c24.7 1 48 9 69.5 21 2.2 1.3 4.9 2.5 6.8 4.3 1.3 2.4-.4 5.1-3.2 4.2a234.2 234.2 0 0 0-51-12c-20.4-2.4-40-3.7-60.3-.1-3.2.4-6.9 2.1-10 1.6-2.7-1.7-1.3-6.1 1.2-7.4a78.6 78.6 0 0 1 47-11.6ZM408 397c3.5.6 6.6 1.8 9.6 3.7a54 54 0 0 0-.3 3.6c-2.7.8-5.5 1.1-8.2 1.4a152 152 0 0 0-38.9 9.7 140.6 140.6 0 0 0-35.1 18.7c-2.9 2-4.2 4.8-8.1 4.4l-1.5-2.6c.9-1.6 1.6-3.2 2.7-4.7a90 90 0 0 1 38.6-29.3c12.7-5.2 27.6-8 41.2-5Z" fill="#000"/></g><g transform="translate(-161 -83)"><path d="M529.1 644.6c2.5.1 4.7 1.4 4 4.2-1.5 2-4.5 1.3-6.7 1.5a155 155 0 0 0-43.8 8.3 73.8 73.8 0 0 0-14 6.2c-2 1-3.3 2.6-5.6 1.5-2.2-1.6-1.2-3.5 0-5.2 8.6-5 17.7-8.4 27.1-11 12.7-3.4 26-5.7 39-5.5Z" fill="#000"/></g><g transform="translate(-161 -83)"></g><g transform="translate(-161 -83)"><path fill-rule="evenodd" clip-rule="evenodd" d="M608 415.8a850 850 0 0 1 32-.3h1.7c3 0 6.2 0 9.3.5 2.6.6 5.6 2 6 4.9 1 5 .5 12-1 17-.5 1.7-1.8 2-3.4 2.3-3.5.4-7 .6-10.4.8l-3.8.2c.1 4.3.4 8.6.7 13 .7 11.7 1.4 23.7-.5 34.8-.9 7.5-3 14.9-5.7 21.9-3.1 8.5-9.1 16.1-15.4 22.6a75.3 75.3 0 0 1-36.2 21.8c-10.9 2.4-22.2 3-33.3 2.2a86.8 86.8 0 0 1-27-8.5c-10.5-6-18.5-15-24.8-25.2a134 134 0 0 1-15.5-41.6c-.5-2.2-.8-4.5-1.1-6.7-.5-2.9-.9-5.7-1.7-8.4-.4-1.8-2.6-3-4.1-4-6.7-3.3-16.4-.9-19 6.7-.5 2.8-.6 5.7-.6 8.6A132.1 132.1 0 0 1 443 525a70.2 70.2 0 0 1-22.5 29.6 72.9 72.9 0 0 1-64 7.8 62.9 62.9 0 0 1-18.8-14.2A107.3 107.3 0 0 1 317 505c-1.9-6.8-3-13.8-3-20.9l-4.9.9c-2.4.5-4.7 1-7.2 1.1-2.2.3-4.2-.6-5.3-2.6-2-3.8-2.5-8.4-1.8-12.6l.1-.5c.3-1.1.5-2.3 1.6-2.8 27.5-12.6 56-20.6 85.5-26.5 11.3-2.3 22.5-3.8 34-3 10 0 20 2.3 28.9 7a41.8 41.8 0 0 0 35.1 0c3-1.6 5-3.8 7-6 1.1-1.5 2.4-2.9 3.9-4.2 9.8-9.1 23-13.3 36.1-14.8 13.1-2.4 26.3-3 39.5-3.7h2.5c5.6-.2 11.1-.2 16.7-.2 7.4 0 14.9 0 22.3-.4Zm-23 6.3c8.3-.4 16.3-.5 24.1 2.9l2.2.9c3.1 1.3 6.8 2.8 7.9 6a98.4 98.4 0 0 1 8.3 40.1 96 96 0 0 1-5.2 37.2 60.6 60.6 0 0 1-18.2 23.9 76 76 0 0 1-17.8 10.2 66.4 66.4 0 0 1-29.3 6.2 95 95 0 0 1-17.2-3.2l-.9-.2c-6-1.5-10.7-4.6-15.7-7.9l-.8-.5a70 70 0 0 1-17.1-17c-2.8-4-4.6-8.7-6.3-13.3l-1.2-3.1c-4.7-12-6-24.6-5.9-37.3 0-7.8 1.2-17 5.5-23.6 5.1-6.4 12-12.2 19.8-15 9.3-2.8 19.2-4.3 28.8-5a320.7 320.7 0 0 1 39-1.3Zm-172.4 22H410a93.1 93.1 0 0 0-30 3.2l-6.8 1.5a164.8 164.8 0 0 0-30.5 8.8c-5.8 2.1-12 4.5-15 10.2-4.8 9.8-3.7 19.6-2.5 29.9l.4 3.3a92 92 0 0 0 13.1 33.3c5 8 11 15 19.4 19.6 12.8 7 28 6.1 41.4 1.6 11.4-4.5 21.8-9.9 28.6-20.4 8.8-14 14-30.7 15.5-47.2.9-9.3-.1-18.8-2.7-27.8-.5-1.4-1-3-2-4.1a35.6 35.6 0 0 0-19.1-11.4c-2.3-.4-4.8-.4-7.2-.5Z" fill="#000"/></g><g transform="translate(-161 -83)"><path d="M459.2 60c1.2-.4 2.6-.6 4-.6 2 3.8 3.2 7.7 4.8 11.7 3.8 9.4 8.7 18.3 14 27 9.1 14.9 19.1 29 30.8 42 5.7 6.5 11.8 12.4 17.4 18.8a116.8 116.8 0 0 1 50.6-41.2c11.6-4.9 24-8.9 36.3-11.5 2.3-.3 5.3-1.4 6.8 1 1.3 1.8-1 5-2 6.7-6.2 9.3-9 20-10.2 31.1-.6 6.4.6 12.5 2 18.8 15.8.6 31.6 2.5 47.3 4.9 9.5 1.3 18.3 4.2 28 3.9 21.3 1 42.9-.5 64-3 4.3-.4 8.7-1.1 13-1 2.6 0 4.4 1.7 4.5 4.3 0 5.2-.3 10.5-.7 15.6-.8 9.4-4 18.2-9.1 26.1 8.7 3.6 17.5 7 26.3 10.4 19 7.1 37.2 14.2 57 19 2.3.5 3.7 3 2 4.8-10.2 9-20.5 17.7-31 26.3-8.9 7.5-18 16-28.5 21.3 8 29.7 10.2 61.2 7.8 91.8a230 230 0 0 1-16 69c-1 2.6-2 5.3-3.7 7.5-.7 1-2.3 1.2-3.4.8-3-1-6-2.7-9-3.7A50.5 50.5 0 0 0 724 465c-4.6 2.3-6.8 6.1-10.4 9.6-5.3 5.3-11 10.4-16.9 15.1-2.8 2.2-6 4.8-9.8 4.6-1.4-.9-2.3-1.4-1.9-3.3 1-4.9 2.7-9.6 3.4-14.5A257 257 0 0 0 687 397c-1.8-10.5-4.1-23-12.4-30.6-9.6-9-18.2-18.9-27.3-28.4-2.5 20.7-10.2 41-20 59.3-8.7 16-19.8 31.4-33.4 43.6-1.8 1.5-3.8 3.2-6 4-2 .4-5.9.1-5.2-2.8.5-3.8 1.8-7.4 2.4-11a184.3 184.3 0 0 0-2.3-70.7c-8.8 12.2-15 26.4-18.2 41.1a70.4 70.4 0 0 0 .7 38c-1.4 1.1-1.9 2.8-4 2a116.6 116.6 0 0 1-55.5-42.1 93.6 93.6 0 0 1-25.1-10.1 91.8 91.8 0 0 1-30-30.8 135 135 0 0 0-5 21.5c-2.9 20.1-2.2 41.6 4.2 61 .5 1.4.7 2.8.6 4.2a7.2 7.2 0 0 1-8 1.3c-17-6.3-31.4-17.2-43.2-30.8a148.7 148.7 0 0 1-22.9-34.2c-3.8 3.4-7.7 6.9-11.3 10.6a308.8 308.8 0 0 0-43.8 58.2c-6.2 10.8-12 22.1-15.8 34-.9 2-1 4-3.5 4.8-3-.6-3.4-3.3-4.4-5.7-4-11.8-6.5-24-7.7-36.4-2.4-20.8-1.5-42 2-62.6a144.4 144.4 0 0 0-35.6 11c-3.3 1.5-6.2 3.8-9.4 5.4-3.3-.3-3.5-3-3.2-5.8a208.8 208.8 0 0 1 44.1-97.6 76 76 0 0 1-29-46c-.4-2.7-1.6-6.5 1.4-8.3 4-.8 8.7.4 12.8.6 15.8 1 32.2-.4 47.4-5.3 7.3-2.3 14.6-4.6 21.4-8.3-16.6-22.4-28.1-48-35-75-1.2-5.2-3-10.7-3.2-16.1 0-2.4.6-4.8 3.4-5.2 3.1.1 6.1 3 9 4.2 20 10.5 41.3 19 63.2 24.7 15.2 3.8 31 5.7 46.5 7.5-1.7-12.8-.7-25.7 2.4-38.2 3.3-13.4 8-26.5 13.9-39 4.1-9 9-17.6 13.4-26.6 1.1-2.1 2.2-4.6 3.8-6.4Z" fill="#000"/><path d="M460.8 68.8A230 230 0 0 0 488 118c6.2 9 13 17.5 20.4 25.7 5.8 6.5 12.3 12.2 18 19 1.7 1.7 2.8 4.3 5.7 3.6 2.3-2.4 3.8-5.6 6-8.3 7.4-9.8 16.5-18.4 26.7-25.2 15.7-10.3 33.1-15.9 51.1-20.5a68.4 68.4 0 0 0-6 56.8c1.6.6 3.5.3 5.1.3 8.3-.2 17 1.2 25 2 12 1.6 24 3.5 36 6 4 1 8 .3 12 .4 16 1 32 .5 48-.6 9.7-.8 19.2-2.3 28.9-3L764 188a53 53 0 0 1-8.8 24.6c-10-3.9-20-7.4-30.4-10.3-1.9-.4-3.5-1-5.1.4-.3 1-.3 2.3-.4 3.4 5.7 2 11.5 3.4 17.2 5.5 17.6 6.4 35 13.8 52.5 20.4 16 6 32.4 12.2 49 16.6a914.7 914.7 0 0 1-26.4 22c-8.6 6.9-17 15-26.7 20.1-2.6-8-5.5-16-9.1-23.5-.8-1.4-1.2-2.8-2.9-3.2-2-1-4 2.1-3 4 1.6 4.3 3.8 8.4 5.4 12.8a249.4 249.4 0 0 1 13.9 97.4 227 227 0 0 1-18 80.9c-13.5-6.2-29-7-43-2.3 7.3-9.8 13.5-20.6 18.8-31.6a48 48 0 0 1 2.4 11.8c.3 2.1-.3 4 1.5 5.6 2.1.4 3.6-.3 3.8-2.6.6-6-1.2-12.6-3.4-18.2-.9-1.9-2-4.8-4.3-5.1-2.3-.3-3.2 1.4-4 3.2a196.8 196.8 0 0 1-29.5 46.6c-6.5 7.4-13.9 13.7-21.3 20.1 2-8.2 3.3-16.6 3.8-25 .4-8 1.2-15.7.6-23.6-1-19.7-2.5-40.2-8.2-59.1 8.1 6.7 16.8 12.5 25.6 18.2 2 1.1 4.3 3.8 6.9 3 2.1-1.2 3-4.1 3.6-6.3 4.4-18.7 5-38 2.1-57-2-13.1-4.7-27-10.3-39-1.2-2.3-2.4-5.2-4.4-6.9-1.9-1.3-4.2-.3-4.2 2.1 1 3.7 3.4 6.9 4.7 10.5 5.3 13 7.8 27.6 9.5 41.5 1.9 16.2.9 32.5-2.7 48.4a246.7 246.7 0 0 1-31.7-22.8c-13.2-11.7-24.8-25-37.2-37.9-7.1-8.1-14.6-16.5-20.1-25.8-4.5-7.4-9.2-14.5-12.7-22.4-2.6-6-5.6-11.6-8.6-17.4-1.9-3.3-2.9-7-4.7-10.4-2-.4-4-.1-4 2.3.4 4.4 3.1 8.8 5 12.8 4.7 8.5 8 17.7 12.8 26l8.7 14.5c4.5 7.2 9.9 13.3 15.3 19.8a160 160 0 0 1-20 62.8c-8.4 15.1-18.9 30-32 41.4 3.9-19.4 3.9-39 1.8-58.5-1.4-8.5-2.2-18-5.6-26-2.8-2.8-4.3.4-6 2.3-17 22.3-26.7 52-22.5 80a104.9 104.9 0 0 1-31.4-20.4 146.4 146.4 0 0 1-39.6-67.7 179.6 179.6 0 0 1-6.5-48c.5-14.2 1.9-28.2 6.1-41.8 1.3-4.4 2.2-8.7 4-13 3.4-7.7 8.1-15 13.2-21.7a139.9 139.9 0 0 1 33.3-31.6c7-4.8 14.6-8.4 22.8-10.6a85 85 0 0 0-4 40.7c.3 1.7.3 3.5 1.7 4.7 1.7 1.7 4.9-.3 4.4-2.6a84.7 84.7 0 0 1 1.8-36.3c.9-3.1 2.6-5.9 3.6-8.9.3-2.7-3-3.7-5-3.7a72.1 72.1 0 0 0-30.6 13.2c-13 9.2-24.4 20.5-33.9 33.2-8 11-14.5 23-17.5 36.4-11.9 45.6-4.6 96 20.6 136a79.4 79.4 0 0 1-45.7-37c-1-1.7-1.8-3.6-3-5.1-2.5-.3-4.6 0-5.4 2.6-5.5 14.6-7.8 31-8.4 46.5 0 14 1.4 28.4 5.6 41.8a98.4 98.4 0 0 1-35-23.6A154 154 0 0 1 370 348c-3-12.8-4.9-25.9-5.4-39-.8-10.4-1-20.5 1-30.8.2-2.3 1.2-4.2-1-6-1.9-1.5-3.6 0-4.9 1.6a213.4 213.4 0 0 0-17 27 106.7 106.7 0 0 0-13 38c0 2-.6 5.7 1.4 7 1.2 1.1 3.9 0 3.6-1.8a90 90 0 0 1 7.6-29.8c4.6-10 10.7-19.7 16.4-29.1-1 14.6.2 29.4 2 44 2 16.3 6.5 32 13.1 47a275.2 275.2 0 0 0-50.4 59.4 242.3 242.3 0 0 0-21.8 41.7 212.8 212.8 0 0 1-4.8-87c1.9-11 4.6-22.6 9.7-32.7.6-1.3 1.6-3 1.3-4.5 0-1.6-1.6-2.3-3-2.3-1.9 1-2.8 2.7-3.7 4.4-3.7 7.5-6 15.3-8 23.4-14.8 2.5-30 6.8-43.2 14.1a202.2 202.2 0 0 1 36.4-84.2c6.5-8.5 14-17 23-23 2.9-2 6.2-3.1 9-5 1.4-1.2 1.3-3.7-.5-4.4-1.2-.8-3.1 0-4.4.5a78 78 0 0 0-21.9 16.5 70.4 70.4 0 0 1-27.5-44.2c17.9 1.4 35.8 1.5 53-3.6 9.5-3 19.6-6 28.2-11 5.9 6.4 12.6 12 20 16.5 2.2 1.2 4.3 2.3 6.9 1.7 1.8-.9 1.3-2.7 1.4-4.4A62 62 0 0 1 355 236c-9.7-8.8-16.4-20-22.7-31.3a229.3 229.3 0 0 1-23-63.4c24.6 13.2 51 23.7 78.4 29.4 16.3 3.2 32.8 4.7 49.2 7 13.8 2.3 27.7 4.4 41.2 7.9 6.3 1.6 12.6 3.2 19 4.6 2.9-.2 2.4-4.7 0-5.3-3.9-1.4-8-2-12-3.1-17.4-5-35.5-8-53.4-10.7-2.3-12.5-1.1-25 1.8-37.2 3.6-14.5 8.8-28.5 15.3-41.9 3.4-7 7-13.6 10.5-20.5l1.4-2.6Z" fill="#85c2c6"/></g><g transform="translate(-161 -83)"><path d="M740.5 550.5a21.1 21.1 0 1 1 13.3 40.1 21.1 21.1 0 0 1-13.3-40.1Z" fill="#000"/><path d="M741.5 556.6c7-2.8 15.5 0 19 6.9a15 15 0 0 1-7 20.8c-8.1 4-18.2-.8-20.8-9.2a15.1 15.1 0 0 1 8.8-18.5Z" fill="#fff"/></g></g></svg>