<svg xmlns="http://www.w3.org/2000/svg" viewBox="0 0 762 762" fill="none" shape-rendering="auto"><metadata xmlns:rdf="http://www.w3.org/1999/02/22-rdf-syntax-ns#" xmlns:xsi="http://www.w3.org/2001/XMLSchema-instance" xmlns:dc="http://purl.org/dc/elements/1.1/" xmlns:dcterms="http://purl.org/dc/terms/"><rdf:RDF><rdf:Description><dc:title>Adventurer</dc:title><dc:creator>Lisa Wischofsky</dc:creator><dc:source xsi:type="dcterms:URI">https://www.figma.com/community/file/1184595184137881796</dc:source><dcterms:license xsi:type="dcterms:URI">https://creativecommons.org/licenses/by/4.0/</dcterms:license><dc:rights>Remix of „Adventurer” (https://www.figma.com/community/file/1184595184137881796) by „Lisa Wischofsky”, licensed under „CC BY 4.0” (https://creativecommons.org/licenses/by/4.0/)</dc:rights></rdf:Description></rdf:RDF></metadata><mask id="viewboxMask"><rect width="762" height="762" rx="0" ry="0" x="0" y="0" fill="#fff" /></mask><g mask="url(#viewboxMask)"><path d="M396 164.8a224.8 224.8 0 0 1 104.8 42.4c6.2 4.9 12.5 9.4 18 15a225.4 225.4 0 0 1 71.8 149 58.5 58.5 0 0 1 50.9 42.2 71 71 0 0 1-27.6 76.5c-11 7.7-24.5 12-38 11.7-5 0-10-1.6-15-1.8-1.9 2.2-3.3 4.9-4.8 7.3A223.3 223.3 0 0 1 389 609.8c-11 .7-21.9 2-33 .7a223.7 223.7 0 0 1-178.8-342.3A223.4 223.4 0 0 1 352 163.5c14.6-1.4 29.4-.3 44 1.3Z" fill="#000"/><path fill-rule="evenodd" clip-rule="evenodd" d="M498.8 213.2A216 216 0 0 0 363 169c-13-.2-26.2 1.6-39 4a218 218 0 0 0-113.6 365.5 218.5 218.5 0 0 0 260.4 40.2c35-18.8 64.2-47.3 84.4-81.5l-3-1.6c-2.8-1.4-5.7-3-8-5-2.2-2-.3-5.8 2.7-4.7 1.5.7 3 1.6 4.4 2.4a55 55 0 0 0 59.6-3.6 64.5 64.5 0 0 0 25-69.8 53.1 53.1 0 0 0-24-31 52.6 52.6 0 0 0-47-2.8c-1.6.8-3.4 1.5-5 1.3-2.5-.2-2.8-4.2-.6-5.2 8-4 16.5-5.6 25.4-6.4a217 217 0 0 0-72-146.4c-4.4-4-8.7-8.1-13.9-11.3Zm107.6 196.2c2-1.2 1.3-5.1-1.4-5-2 0-4.2.8-6.2 1.6l-1.4.4a95.1 95.1 0 0 0-25.5 12.4c-2.2 2-2.2 4.4.1 6.2a92 92 0 0 0 5.2 2.8 36 36 0 0 1 13 9.2c-.2 1.9-2 3.4-3.4 4.5l-.2.2c-3.9 3-8.8 5-13.6 7-2.5 1-4.9 2-7.1 3.1-1.7.8-2.6 2.2-1.6 3.9 1 2 3.2 1.1 5 .5l.6-.2 5.4-2.3c5.4-2.3 11-4.5 15.4-8 2.7-2.1 5.1-5.1 5.4-8.7-.5-3.4-2.7-5.7-5.3-7.8a83 83 0 0 0-11.6-7.2l-1.1-.6c5.4-3 10.8-5.6 16.6-7.7l5-1.7a52 52 0 0 0 6.7-2.6Z" fill="#9e5622"/><g transform="translate(-161 -83)"><path d="M562 467.8c1.7 0 3.2.3 4.9.6-.3 2.3.3 4.3-2.6 4.8l-28.3 2c-4.3.2-8.8 1.2-13 .9-2-.8-2.7-2-2.1-4.1 1.4-1.4 3.2-1.6 5-1.7 12-.7 24-1.9 36.1-2.5ZM396.3 481.3c1.3 1.2 2.2 2 2.1 3.9-1.4 2.5-5 2-7.4 2.3-8 .2-16 1.7-24 1.7-2.8-.3-2.2-2.5-2.6-4.6 10.3-2.6 21.4-1.7 32-3.3ZM618.9 483l3.1 2.3a65.6 65.6 0 0 1-34.2 61.5 65.4 65.4 0 0 1-96-53c2.1-3.2 5.8-3 9.2-3.2l92-6.2c8.7-.2 17.2-1.6 25.9-1.3Z" fill="#000"/><path d="M616.3 488.6a59.2 59.2 0 0 1-68.3 59.6 59.7 59.7 0 0 1-35.3-18.9 57.9 57.9 0 0 1-14.8-32.5c11.2-1.2 22.4-1.7 33.6-2.6a73 73 0 0 0 5.2 25c2 4.3 5.3 10 10.2 11.1 4.8.9 8-2.5 10-6.4 4.6-9.3 4-21.5 3.2-31.6 18.7-1.2 37.5-2.6 56.2-3.7Z" fill="#fff"/><path d="M415 499.7c8.1-.7 16.1-1.4 24.3-1l2.6 2.4a55.1 55.1 0 0 1-109.6 6.8c1-.9 2.1-2.7 3.6-2.8 13-1.6 26-1.7 39.1-3 13.4-.6 26.7-1.7 40-2.4Z" fill="#000"/><path d="M436.4 504.3a49.5 49.5 0 0 1-49.4 46.9 50 50 0 0 1-48.6-40.8c11.3-1 22.7-1.7 34-2.3 0 7.2 1 14.4 4.9 20.6 1.7 2.6 4.3 5.2 7.7 5 3.5-.1 6-3.3 7.5-6.3a42 42 0 0 0 2.2-20.7c13.9-.8 27.8-2.2 41.7-2.4Z" fill="#fff"/></g><g transform="translate(-161 -83)"><path d="M582.3 370.7c14 7 27.8 17.3 36.6 30.5a3 3 0 0 1-4.3 4.2A104.4 104.4 0 0 0 482 425c-1.6 2-4 3.6-6.2 1.2-1.7-2.6-2.3-6-3.3-9-2 4.8-3.9 9.6-6.2 14.1-1.6 3.2-6 1.1-7-1.4-3.1-6.9-6.3-13.8-9-20.8v17c-.2 2 .2 4.3-2.2 5.1-2 .3-4.3-1-5.3-2.9-3.2-5.8-6.2-11.9-9.4-17.8 1 5.5 2.6 11 3 16.6.2 2-2.2 3.4-4 2.3a132.6 132.6 0 0 0-58.3-10 65.3 65.3 0 0 0-36 12.6c-3 2.4-5.2 5.5-8 8.2-1.6.7-3.2-.3-4.9-.7.1-1.9.2-3.7.8-5.6a86.6 86.6 0 0 1 40-50c13.5-7.4 30.1-9 44.6-3.4a57.4 57.4 0 0 1 27.6 24c2.4-2.9 4.3-6 6.8-8.8 1.6-1.5 4.6-1.5 5.6.8 2.6 5.1 4.7 10.5 7 15.7L462 390c.4-1.5.6-3.2 1.6-4.5 1.7-1.2 3-.2 4.7.1l.8 2.6c2-4.8 4.7-9.1 8.4-12.8A62.1 62.1 0 0 1 512 359c23.9-3.6 48.9 1.2 70.4 11.8Z" fill="#000"/></g><g transform="translate(-161 -83)"><path d="M505 609.6c4.7 1.3 9 4.7 12.2 8.2 1.4 1.7 3.6 3.9 3 6.2-.4 2.5-3.7 3-5 .8a27.5 27.5 0 0 0-9.4-8.5c-2.3-1.5-6.8-.6-6.7-4.2.5-3 3.6-2.9 6-2.5ZM498 623c5 1.5 8.4 5.8 8.8 11 1.3 13.2-9.4 25.8-21.8 29.2-12.4 3.7-28.8-1-35-13.2-2.5-4.2-3.8-9.2-2-14 1.8-4 5.8-5.6 10-6 5-.6 9.5 1 13.9 3.5 3.8-4 7.7-7.6 12.9-9.8 4-1.8 9-2 13.2-.7Z" fill="#000"/><path d="M499 630c3.2 3.5 2.2 9.6.4 13.5a25.5 25.5 0 0 1-26 15c-7.2-1.2-14.2-4.1-18.1-10.8-1.4-2.6-3.4-6.6-2-9.4 2.2-3.8 8.7-3.2 12.2-1.8 2.8.7 5.6 4 8.4 3.5 3.7-3.5 6.5-7.4 11.2-9.8 4.3-2.4 9.6-3.3 13.8-.1Z" fill="#8F2E45"/></g><g transform="translate(-161 -83)"></g><g transform="translate(-161 -83)"></g><g transform="translate(-161 -83)"><g fill="#000"><path d="M546 236.8a220 220 0 0 1 141.8 52.3 189.7 189.7 0 0 1 60.4 97.9c5.5 21.9 6.6 44.4 4.3 66.8-.4 1.8-.5 5.6-3 5.6-4.2.2-8.5 0-12.7 1.2a64.9 64.9 0 0 0-31.2 17c-1 1-2 2.2-3.6 1.8-1.6 0-2.3-2-2.1-3.4.3-3 1.5-6 2.1-9 1.6-6.7 1.9-13.2 2.5-20 .6-6.8-.3-13.3-.9-20-.4-3.8-1.2-7.3-2-11a54.2 54.2 0 0 1-26.5-7c-15.8-9-27.3-25-35.5-40.8-9.8-19-16-40-20.2-60.8a441.8 441.8 0 0 1-91.2 25.9 561.7 561.7 0 0 1-101.2 9 386 386 0 0 1-71.2-6c-2-.4-3.5-1.1-3.6-3.3 1-3.8 4-7.3 6.5-10.3 9-11 19-21 29.9-30.1A242 242 0 0 1 546 236.8Z"/><path d="M718.6 474.6c0 1 .3 2.7-.5 3.5-2.2 2.4-5.1 4.2-7.6 6.4-2.6 2.2-4.8 4.9-7.5 6.9-2.7.5-4-2-2.7-4.1 2.7-3.8 6.7-6.8 10.2-9.8 2.7-2 4.5-4.7 8-3Z"/></g><path d="M520.2 243.8c41.3-4.2 83.5 2.8 120.8 21.2a194.1 194.1 0 0 1 79.2 70.7 181 181 0 0 1 26.4 118 68 68 0 0 0-38.6 14c2.8-16.5 3.5-33.4 0-49.8-.7-2.4-1.2-5.3-2.8-7.1-1.6-1.2-4.3-.8-6.2-1-8 .2-16-2.8-22.9-7a87.5 87.5 0 0 1-27.6-30.3 211 211 0 0 1-22.2-60.5c-.8-3.3-1.1-6.8-2.3-10-.9-1.4-2.4-1.8-4-1.2-3.6 1.3-7.1 3-10.7 4.3a443.8 443.8 0 0 1-82.3 22.5 588.4 588.4 0 0 1-81 8.7c-14.6.2-29.4.4-44-.4-14.3-1-28.4-2.4-42.5-4.8a232.8 232.8 0 0 1 160.7-87.3Z" fill="#85c2c6"/></g><g transform="translate(-161 -83)"></g></g></svg>