<svg xmlns="http://www.w3.org/2000/svg" viewBox="0 0 762 762" fill="none" shape-rendering="auto"><metadata xmlns:rdf="http://www.w3.org/1999/02/22-rdf-syntax-ns#" xmlns:xsi="http://www.w3.org/2001/XMLSchema-instance" xmlns:dc="http://purl.org/dc/elements/1.1/" xmlns:dcterms="http://purl.org/dc/terms/"><rdf:RDF><rdf:Description><dc:title>Adventurer</dc:title><dc:creator>Lisa Wischofsky</dc:creator><dc:source xsi:type="dcterms:URI">https://www.figma.com/community/file/1184595184137881796</dc:source><dcterms:license xsi:type="dcterms:URI">https://creativecommons.org/licenses/by/4.0/</dcterms:license><dc:rights>Remix of „Adventurer” (https://www.figma.com/community/file/1184595184137881796) by „Lisa Wischofsky”, licensed under „CC BY 4.0” (https://creativecommons.org/licenses/by/4.0/)</dc:rights></rdf:Description></rdf:RDF></metadata><mask id="viewboxMask"><rect width="762" height="762" rx="0" ry="0" x="0" y="0" fill="#fff" /></mask><g mask="url(#viewboxMask)"><path d="M396 164.8a224.8 224.8 0 0 1 104.8 42.4c6.2 4.9 12.5 9.4 18 15a225.4 225.4 0 0 1 71.8 149 58.5 58.5 0 0 1 50.9 42.2 71 71 0 0 1-27.6 76.5c-11 7.7-24.5 12-38 11.7-5 0-10-1.6-15-1.8-1.9 2.2-3.3 4.9-4.8 7.3A223.3 223.3 0 0 1 389 609.8c-11 .7-21.9 2-33 .7a223.7 223.7 0 0 1-178.8-342.3A223.4 223.4 0 0 1 352 163.5c14.6-1.4 29.4-.3 44 1.3Z" fill="#000"/><path fill-rule="evenodd" clip-rule="evenodd" d="M498.8 213.2A216 216 0 0 0 363 169c-13-.2-26.2 1.6-39 4a218 218 0 0 0-113.6 365.5 218.5 218.5 0 0 0 260.4 40.2c35-18.8 64.2-47.3 84.4-81.5l-3-1.6c-2.8-1.4-5.7-3-8-5-2.2-2-.3-5.8 2.7-4.7 1.5.7 3 1.6 4.4 2.4a55 55 0 0 0 59.6-3.6 64.5 64.5 0 0 0 25-69.8 53.1 53.1 0 0 0-24-31 52.6 52.6 0 0 0-47-2.8c-1.6.8-3.4 1.5-5 1.3-2.5-.2-2.8-4.2-.6-5.2 8-4 16.5-5.6 25.4-6.4a217 217 0 0 0-72-146.4c-4.4-4-8.7-8.1-13.9-11.3Zm107.6 196.2c2-1.2 1.3-5.1-1.4-5-2 0-4.2.8-6.2 1.6l-1.4.4a95.1 95.1 0 0 0-25.5 12.4c-2.2 2-2.2 4.4.1 6.2a92 92 0 0 0 5.2 2.8 36 36 0 0 1 13 9.2c-.2 1.9-2 3.4-3.4 4.5l-.2.2c-3.9 3-8.8 5-13.6 7-2.5 1-4.9 2-7.1 3.1-1.7.8-2.6 2.2-1.6 3.9 1 2 3.2 1.1 5 .5l.6-.2 5.4-2.3c5.4-2.3 11-4.5 15.4-8 2.7-2.1 5.1-5.1 5.4-8.7-.5-3.4-2.7-5.7-5.3-7.8a83 83 0 0 0-11.6-7.2l-1.1-.6c5.4-3 10.8-5.6 16.6-7.7l5-1.7a52 52 0 0 0 6.7-2.6Z" fill="#763900"/><g transform="translate(-161 -83)"><path d="M506 461.1c5.5-1.1 11.7 2.5 17 4 22.1 7 45.9 9.5 69 7.7 6.2-.6 12.8-2.4 19-2 6.2.7 10.4 6.1 11 12a65.6 65.6 0 0 1-35.5 64.6 65.4 65.4 0 0 1-92.4-76.2c1.4-5.3 6.8-9 12-10ZM428.2 466.8c3.7 2.2 5.9 6.6 7.8 10.2a55.3 55.3 0 0 1-40.8 79.1 55 55 0 0 1-62.5-45c-.5-3.8-1.5-7.7.2-11.2 1.6-4.2 5.7-7.1 10.1-7.6a123.8 123.8 0 0 0 65.1-24.1 16.5 16.5 0 0 1 20.1-1.4Z" fill="#000"/><path d="M513.4 467.6c12.2 5 25.5 8 38.6 9.8 15.6 2 31.4 2.6 47 .3 3.9-.6 8.1-1.8 12-1.6 2.4.1 4.4 2.7 4.8 5a59.2 59.2 0 0 1-37 63.5 59.6 59.6 0 0 1-79.4-70.2c1.6-6.2 8-10 14-6.8ZM427.8 474.2c4.8 7 7.5 15.3 8.4 23.8a49.8 49.8 0 0 1-50.2 53.2 49.2 49.2 0 0 1-48.2-46.2c-.5-3.2 2.1-6.5 5.2-7 3.3-.6 6.7-.8 10-1.2 18.4-2.2 36.5-9.6 52.1-19.7 3.1-1.9 5.9-4.3 9-6.1 4.4-2.3 11-1.2 13.7 3.2Z" fill="#fff"/><path d="M533.5 497a22.1 22.1 0 0 1 24.1 21c.9 11-7.5 21.2-18.4 22.8-12 2.2-24-6.8-25.4-18.8-2-12.3 7.5-24 19.7-25ZM400.5 505.5c6-1.3 12.6.9 17 5a19.5 19.5 0 1 1-17-5Z" fill="#000"/></g><g transform="translate(-161 -83)"><path d="M614 407a133.9 133.9 0 0 0-92-35 175 175 0 0 0-26.4 3c-1.5 3.3-2.5 6.6-3.5 10l-1.2 3.7v-1.4a170 170 0 0 0-1.4-11.4l-3.2-1.5-.8 1.1c-.6.8-1.3 1.6-1.3 2.4 0 3.8.3 7.5.7 11.3.3 2.8.6 5.5.7 8.3l.2 2.2c.1 2.4.3 5 1.6 6.9 2.9.7 6-.4 9-1.4l3.1-1c19-5.5 39.2-6.8 58.7-4.4 20 2.3 40 8.3 57.4 18.6 2 1 4 1.8 6.2 2.5l1.7-3.4c-2.7-4-6-7.3-9.5-10.5ZM422.3 399.6c0-4.2.2-8.5 0-12.7-.3-2.5-1.9-2.5-3.7-2.6h-1c-1 3.6-1 7.5-1.2 11.3l-.3 5-4.5-11.4-.4-.8c-.4-1.1-.9-2.3-2.2-2.3-2.5 0-5 .4-7.5.9l-3.5.6a128 128 0 0 0-52 20.3 53 53 0 0 0-16.7 18.5c-1.5 3.2-2.9 6.5-1.6 10h.4c1 .4 2.6.9 3.4.1a92 92 0 0 0 2.7-2.1c2-1.7 4.1-3.4 6.5-4.6a152.8 152.8 0 0 1 68.3-15.3c1.9 0 3.7.2 5.5.5 1.9.3 3.7.5 5.6.5 1.8-1.2 1.9-3.6 2-5.7V408c0-2.8 0-5.6.2-8.4Z" fill="#000"/></g><g transform="translate(-161 -83)"><path d="M535 563a31.4 31.4 0 0 1 22.7 17.3 48 48 0 0 1 3.5 23.7 53 53 0 0 1-15 30.2 65.7 65.7 0 0 1-33.2 18.9 140.5 140.5 0 0 1-62 .3 85.4 85.4 0 0 1-38.6-19.8c-4.5-4.2-9-9.1-11-15A30 30 0 0 1 403 595c3.3-6.3 9.9-10.5 17-10.7 12.7-.7 23.9 4.2 36 4.8 7.8 0 15.9-1.1 23.2-4 11.3-4.8 21.3-14.5 32.8-19.1 7.4-3 15.1-4.6 23-3Z" fill="#000"/><path d="M538 569.9c7 2.5 12.7 7.9 15.1 15-3 2.5-5.8 5-9 7.3-3.6 2.6-7.2 4.4-9.9 8-3.2 4-6 9.9-10.4 12.5-3.4-.4-6.6-2.9-9.8-4-2.4-.7-5.4.4-7.8 1a167.3 167.3 0 0 1-37.2 5.9 46 46 0 0 0-9.6 1c0 1.2 0 2.4.3 3.6 1.9 1.5 5 1.3 7.3 1.5 15.3-.6 30.3-3.2 45-7.3 3.7 0 9.4 5.2 13.9 3.5 5.3-2.5 9-9 12.4-13.6 1.9-2.8 4.5-4 7.1-5.9 3.4-2.2 6.5-4.7 9.6-7.3a46 46 0 0 1-.4 17c-2.2 9.3-8.1 17.9-15 24.5a66.5 66.5 0 0 1-37.1 16.6 141 141 0 0 1-36.5.8 87.2 87.2 0 0 1-48.4-19.6c-5-4.7-9.8-8.9-11.2-16-2.3-8.6.4-20.7 10.1-23.5 8.2-2 17.8.5 26 2.2 12 2.8 25 2.4 36.7-1.7 14-4.9 25-17 38.8-21.3a30 30 0 0 1 20-.2Z" fill="#fff"/></g><g transform="translate(-161 -83)"></g><g transform="translate(-161 -83)"></g><g transform="translate(-161 -83)"><g fill="#000"><path d="M534 131.3c5.7.5 11.4 3.3 14.7 8a60 60 0 0 1 8.2 20.8c2.8 12.5 4.9 25.3 6.9 38 9.6-16.4 15.6-33 29.1-47.2 5.2-5.4 12.9-7.3 20.1-8 8 .2 16.7 3.4 24.5 5.5 5.6 1.7 11.6 3.3 16.7 6.3 4 2.5 6.5 6.6 7 11.2 1.2 15.4-3.9 28-8.7 42.1a178 178 0 0 1 45-18.7c6.4-1.3 13.1-.1 18.4 3.9a64.4 64.4 0 0 1 15.2 15.7c2.2 3.4 3.8 7 3.4 11-.5 8.2-4.6 16.3-7.9 23.7-2.6 6-6 11.6-9.7 17.1 6.8-1 13.4-2.8 20-4 6.3-1.1 13.4-2.9 19.7-1.2 5.8 1.6 10 7 12.8 12.1 3.6 7.6 6 15.9 8 24 .8 3.6 1.2 7-.5 10.4-2.6 5.7-7.9 8.8-13.2 11.8a144 144 0 0 0-12.9 8c4.6.7 10.4 1.3 14.1 4.2 4 3.4 4 9.2 4 14 0 5.5-1.2 10.7-5.6 14.4a41.6 41.6 0 0 1-20.6 7c4.2 8.7 7 18.2 9.2 27.5 3.5 15.8 5.1 32 5.2 48.1-.6 7.2-.4 14.9-2.5 21.8-2.6 1.6-6.6.1-9.6.7-7 1-14.5 2.6-21 5.5-3.5 1.5-5.4 4.3-8 7-4 4.9-8.6 9.4-12.7 14.3-2 2.3-4 4.8-6.3 6.8-2 2-6.2-.4-6-3-.2-10 .3-19.9-.7-29.8-1.9-19.6-6.2-40-14.8-57.8a61.6 61.6 0 0 0-20.5-25.6c-4-2.5-8.3-3.4-13-4a3 3 0 0 1-2.5-4c1.3-3.5 3.5-6.7 5.6-9.8 6.4-9.5 13.7-18.4 21.8-26.5-23-7.3-46.4-10.8-70.4-12.8a625 625 0 0 0-208.2 19.5 282.2 282.2 0 0 0-45 16.9c-2.1 1-3.9 2.4-5.7 3.7-.6.5-1.4.5-2.4 0-1.5-1.2-1-3.8-.6-5.4 1.6-6.8 3.8-13.5 6.4-20-10.7-4.1-21.2-8.7-32-12.5a41.5 41.5 0 0 1-17.2-9.9 23.9 23.9 0 0 1-5.6-13.1c-1-7-1.5-15 .8-21.8a18 18 0 0 1 12-11.2c8-2.4 16-2.6 24.2-2.1-4.4-5.6-11-11.6-12.2-18.8-.8-6 3.3-12.6 6.8-17.2a73.4 73.4 0 0 1 15-16c4.6-3.1 10-2.5 15-.7 15.7 5.7 31 13.6 44.4 23.8-5.9-10.7-10.7-22-14.9-33.5-1.7-4.8-2.8-10.6 0-15.2a74.2 74.2 0 0 1 27.3-25.7c4.6-2.6 9-4.8 14.5-3.9 4.3.9 8.3 3.8 12 6.3 12.9 9.6 24 21.8 34.3 34.2.9-12.4-.3-24 2.2-36.3 1.4-6.6 4.7-13 10-17.3 4.4-3.8 10.2-5.5 15.6-7.2 5.5-1.8 11-2.4 16.8-3.3 8-1.2 15.8-2.4 24-1.8Z"/><path d="M716.3 478.7c.7 2 .5 3-.8 4.8-4 5.2-8.6 10-12.8 15.2-2 2.5-4 5.4-6.4 7.7-1.1 1.1-3.7 1-4.3-.6-1-2.1.5-3.5 1.7-5 4.6-5.8 9.4-11.4 14.2-16.9 1.6-1.7 3-3.7 4.8-5.2 1.2-1.1 2.3-.5 3.6 0Z"/></g><path d="M532 137.1a15 15 0 0 1 12.4 6.5c3.8 5.9 5.6 13.6 7.2 20.4 2.9 13.6 5.2 27.3 7 41 0 2.5 1.7 3.3 3.4 4.6 4-2.3 5-6.3 7.4-10.1 9-15.3 15.1-30.4 27.3-43.8 3.8-4.2 8.8-5.7 14.3-6.5 6.4-.7 13.4 1.7 19.5 3.4 6.8 2.1 14.4 3.7 20.6 7.3 3.6 2 4.4 6.3 4.5 10-.4 9.1-2.4 17.9-5.4 26.4-1.6 4.8-3.9 9.7-4.6 14.8-.1 1.9 1 4.9 3.4 4.7 1.9-.2 3.7-1.6 5.4-2.4 11-6.6 23.2-11.6 35.4-15.7 5.3-1.6 10.5-3.6 16.2-2.5 3.8.7 6.6 3 9.5 5.3 4.2 3.7 8.3 8 11.2 12.8 1.1 2 2.3 4.3 2 6.7-1 8-5.3 15.9-8.6 23.2-2.4 5.4-5.6 10.2-8.8 15.2-1.2 2-3 4.2-2.6 6.7.9 1.6 2.3 2.5 4.2 2 11.7-2 23.4-4.7 35.1-6.4 3.9-.6 8.4.3 11.2 3.1 5.2 4.8 7.5 12.7 9.7 19.2 1.3 4.9 3.7 10.8 2.8 15.8-1.6 4.7-7 7.5-11 9.8-5.5 2.8-10.4 6.4-15.5 9.6-1.5 1-2.6 2.3-3.7 3.7 1.1 1.5 1.6 3.4 3.6 4 5.7 1.9 11.6 1.7 17 4.9 1.2 4.8 1.4 9.8.2 14.8-.8 2.9-3.1 4.7-5.8 6a45.2 45.2 0 0 1-21.6 4l-1 2.6c2.7 4.8 5.4 9.4 7.2 14.7 5.8 16.3 8.4 33.8 9.7 51 .3 10 .5 20-1.1 29.8a92 92 0 0 0-28.5 5.9c-2 .7-3.7 2.8-5.2 4.4-6.3 6.9-12.8 13.6-18.9 20.6 0-7.2.2-14.4-.7-21.6a189 189 0 0 0-10-50.3 103.2 103.2 0 0 0-15.7-29.4 40.8 40.8 0 0 0-24.3-16 158.7 158.7 0 0 1 28.3-33.6c1.8-2 .6-4.7-2-5.3-22-7.8-45.5-11.6-68.7-14-35.2-3.2-70.8-2.9-106-.2-40.6 3.5-81.9 10-120.8 22.2a260.3 260.3 0 0 0-35.8 14c1.3-4.2 2.7-8.5 4.5-12.6.6-1.9 1.7-3.6 1.1-5.6-1.5-1.9-4.3-2.8-6.5-3.8-9.2-3.7-18.3-7.8-27.7-11.3-5.1-2-11-4-15.2-7.7-3.7-3-5-7.8-5.7-12.3a44 44 0 0 1 .7-17.6c1.2-3.6 3.8-6.2 7.3-7.5 8-2.6 15.9-2.6 24-2 2.6 0 5 .7 7.2-.9.8-1.4 1-2.8 0-4.1-4-6-10.1-11.3-13.5-17.8-2.1-5.1.8-9.8 3.6-14 4.4-5.6 9-12 14.8-16.2 2.9-2.1 6.2-1.3 9.3-.3A169.9 169.9 0 0 1 382 235c4.4 2.9 8.4 6.5 13 9 2.4 1.1 5.3 1 6-2-.8-4-3-7.7-4.7-11.3-5.2-9.8-9.4-20.2-13.2-30.7-1-4-2.8-7.3-.3-11.1a69.5 69.5 0 0 1 25.6-23.5c4.2-2.2 8.2-4.2 12.7-1.6 11.8 6.7 22 17.2 31 27.1 4 4.3 7.7 9 11.3 13.7 1.4 2.6 7 2.6 7.5-.6.7-13.8-.3-28.3 2.6-41.8a23 23 0 0 1 12-16.6 78 78 0 0 1 23.3-6.3c7.7-1.2 15.3-2.4 23.2-2.2Z" fill="#dba3be"/></g><g transform="translate(-161 -83)"></g></g></svg>