<svg xmlns="http://www.w3.org/2000/svg" viewBox="0 0 762 762" fill="none" shape-rendering="auto"><metadata xmlns:rdf="http://www.w3.org/1999/02/22-rdf-syntax-ns#" xmlns:xsi="http://www.w3.org/2001/XMLSchema-instance" xmlns:dc="http://purl.org/dc/elements/1.1/" xmlns:dcterms="http://purl.org/dc/terms/"><rdf:RDF><rdf:Description><dc:title>Adventurer</dc:title><dc:creator>Lisa Wischofsky</dc:creator><dc:source xsi:type="dcterms:URI">https://www.figma.com/community/file/1184595184137881796</dc:source><dcterms:license xsi:type="dcterms:URI">https://creativecommons.org/licenses/by/4.0/</dcterms:license><dc:rights>Remix of „Adventurer” (https://www.figma.com/community/file/1184595184137881796) by „Lisa Wischofsky”, licensed under „CC BY 4.0” (https://creativecommons.org/licenses/by/4.0/)</dc:rights></rdf:Description></rdf:RDF></metadata><mask id="viewboxMask"><rect width="762" height="762" rx="0" ry="0" x="0" y="0" fill="#fff" /></mask><g mask="url(#viewboxMask)"><path d="M396 164.8a224.8 224.8 0 0 1 104.8 42.4c6.2 4.9 12.5 9.4 18 15a225.4 225.4 0 0 1 71.8 149 58.5 58.5 0 0 1 50.9 42.2 71 71 0 0 1-27.6 76.5c-11 7.7-24.5 12-38 11.7-5 0-10-1.6-15-1.8-1.9 2.2-3.3 4.9-4.8 7.3A223.3 223.3 0 0 1 389 609.8c-11 .7-21.9 2-33 .7a223.7 223.7 0 0 1-178.8-342.3A223.4 223.4 0 0 1 352 163.5c14.6-1.4 29.4-.3 44 1.3Z" fill="#000"/><path fill-rule="evenodd" clip-rule="evenodd" d="M498.8 213.2A216 216 0 0 0 363 169c-13-.2-26.2 1.6-39 4a218 218 0 0 0-113.6 365.5 218.5 218.5 0 0 0 260.4 40.2c35-18.8 64.2-47.3 84.4-81.5l-3-1.6c-2.8-1.4-5.7-3-8-5-2.2-2-.3-5.8 2.7-4.7 1.5.7 3 1.6 4.4 2.4a55 55 0 0 0 59.6-3.6 64.5 64.5 0 0 0 25-69.8 53.1 53.1 0 0 0-24-31 52.6 52.6 0 0 0-47-2.8c-1.6.8-3.4 1.5-5 1.3-2.5-.2-2.8-4.2-.6-5.2 8-4 16.5-5.6 25.4-6.4a217 217 0 0 0-72-146.4c-4.4-4-8.7-8.1-13.9-11.3Zm107.6 196.2c2-1.2 1.3-5.1-1.4-5-2 0-4.2.8-6.2 1.6l-1.4.4a95.1 95.1 0 0 0-25.5 12.4c-2.2 2-2.2 4.4.1 6.2a92 92 0 0 0 5.2 2.8 36 36 0 0 1 13 9.2c-.2 1.9-2 3.4-3.4 4.5l-.2.2c-3.9 3-8.8 5-13.6 7-2.5 1-4.9 2-7.1 3.1-1.7.8-2.6 2.2-1.6 3.9 1 2 3.2 1.1 5 .5l.6-.2 5.4-2.3c5.4-2.3 11-4.5 15.4-8 2.7-2.1 5.1-5.1 5.4-8.7-.5-3.4-2.7-5.7-5.3-7.8a83 83 0 0 0-11.6-7.2l-1.1-.6c5.4-3 10.8-5.6 16.6-7.7l5-1.7a52 52 0 0 0 6.7-2.6Z" fill="#763900"/><g transform="translate(-161 -83)"><path d="M494.8 474.6c2.5.2 5 1.4 7.4 2.2 9.3 3.7 18.8 6.1 28.5 8.4 21 5 42.8 8.8 64.3 6.9 7.4-1 14.8-2.4 22-3.9 2.6-.6 5.5.8 5.2 3.7a65.5 65.5 0 0 1-113 42 72.5 72.5 0 0 1-15.4-26.8c1.2 8 2.5 15.7 6.2 23 3 6 7.3 11 11.6 16-1.1 1.3-2.5 3.2-4.5 2-3.6-2.7-6.2-6.8-8.8-10.4-6.2-9-8.8-19.5-10-30.2-1-7.3 0-15 1.3-22.2.7-3.6 1.9-8.7 5.2-10.7ZM436.1 479.8c2.2.8 3.2 3 4.1 5 5.6 12 7.8 26.2 4.8 39.3a41.1 41.1 0 0 1-12 23c-1.6 1.6-3.5 1.5-5.6 1.4v-3.1c2.1-2.6 4.8-4.6 6.5-7.5a52.5 52.5 0 0 0 7-25.2 54.7 54.7 0 0 1-86.3 33.7c-9-6.6-16-16-19.7-26.5-.6-2-1.2-4.4-.5-6.3a9 9 0 0 1 5.6-2c8.8-.7 17.4-2.7 26.1-4.5 7.5-1.5 14.6-3.9 22-6 9.5-3.2 18.9-7.8 28-11.9 5.3-2.3 10.3-5 15.3-7.8 1.4-.7 3-1.8 4.7-1.6Z" fill="#000"/><path d="M497.9 481c5 2 9.7 3.9 14.8 5.2 13.9 3.7 28.1 7.8 42.3 9.6 2.6.4 5.2 1 7.7 1.5a23.5 23.5 0 0 0 41.1 14.5 26 26 0 0 0 6-16.4l6.5-1a59.9 59.9 0 0 1-73.5 52.8 59.7 59.7 0 0 1-45-66.1ZM433.8 486.2A49.4 49.4 0 1 1 340 517c14.8-1.8 29.7-4.5 44-8.8a24 24 0 0 0 21 18c10.1 1 20-5 23.9-14.3 3-7.1 2.3-15.8-1.9-22.3l6.8-3.4Z" fill="#fff"/></g><g transform="translate(-161 -83)"><path d="M531 352.3a85.8 85.8 0 0 1 60.6 15.1 82.9 82.9 0 0 1 29 33c1 3-.4 3.8-2.6 5.3-4-2.2-6.9-5.6-10.5-8.3-13-9.7-28-16.3-43.7-20.2-15-3.5-30.6-5-45.8-2.8-4.8.4-9.3 2-14 2.7-2.4.2-5.1-1.2-4.2-4 1.9-4.2 4.2-8.6 7.6-11.7a45 45 0 0 1 23.6-9ZM383 428.8c13.4-.8 26.3-.6 39 4.3 5.9 2.3 11.6 5.9 14 12a14 14 0 0 1-1.8 12.6c-4.9-.7-9.4-2.6-14.1-3.8a203 203 0 0 0-71-6c-5 .4-10 2-14.8 1.8-1.8-.5-1.2-2.2-1-3.5.9-2.5 3.6-3.9 5.8-5.1a119.2 119.2 0 0 1 43.9-12.3Z" fill="#000"/></g><g transform="translate(-161 -83)"><path d="M517 555.4a55.3 55.3 0 0 1 38.6 13c6 5.6 9.7 13.4 9.9 21.6a43.7 43.7 0 0 1-9.9 27.6 88.3 88.3 0 0 1-35.5 26.5c-7.3 2.9-14.4 5.8-22.1 7.3a86.3 86.3 0 0 1-50-5.3 131 131 0 0 1-38.4-24.7 54.5 54.5 0 0 1-13.2-18.9c-2-5.5-2.4-12 1.2-16.9 3.7-5.4 10-7.7 16.2-8.8 12.6-1.8 24.4.4 36.5 3.7a92 92 0 0 1 25-16.2c13-5.7 27.4-9.3 41.7-8.9Z" fill="#000"/><path d="M542.5 566.4c-3.5 2.6-7.4 4.7-10.9 7.3-4.3 4-7.6 11-12.7 14-5.2 1-10.5-3.2-15.2-1-9.3 3.5-18.8 6-28.5 7.9a117.6 117.6 0 0 1-43.6.9c-4.3-1.1-7.2 1.3-11.5 1.9-4.4-4.3-7.5-9.3-12.7-12.6 12.7-5.4 28.7-2 41.6 1.5 4 1.2 6-2.5 8.8-4.5a97.4 97.4 0 0 1 47.2-19.9 68.3 68.3 0 0 1 37.5 4.5Z" fill="#fff"/><path d="M548 570a25.8 25.8 0 0 1 11.8 21c-.2 7.4-3 14-6.8 20.2a45.8 45.8 0 0 0-20-2.8c-14.4.9-28.6 4.4-42 9.6-9 3.7-18 8.3-25.7 14.3-3.7 3-6.4 6.2-8.7 10.4a93.4 93.4 0 0 1-21.6-9.8c-9.9-5.8-19-12.6-26.4-21.4-3.8-4.7-7.6-10.4-7.8-16.5-.2-2.3.9-4.4 1.7-6.6 5.4 3.7 9.4 8.7 14.2 12.9 4 3.4 9.2-.7 13.8 0 5.8 1 11.6 1.5 17.5 1.8 20.4-.2 40.6-4.3 59.6-11.5 4.2.8 10 2.7 14 1 5-2.8 8.6-8.6 12.2-12.9 1.5-1.8 3.8-3 5.7-4.2 3-1.7 5.5-4 8.5-5.6Z" fill="#8F2E45"/><path d="M536 614.2c4.5-.1 9 .6 13.3 1.9a86.5 86.5 0 0 1-35.8 24.4 86.1 86.1 0 0 1-51.3 3.9c2-2.8 4.1-5.3 6.8-7.4a103 103 0 0 1 31-16c11.5-3.8 23.9-6.6 36-6.8Z" fill="#EA869E"/></g><g transform="translate(-161 -83)"></g><g transform="translate(-161 -83)"><path fill-rule="evenodd" clip-rule="evenodd" d="M608 415.8a850 850 0 0 1 32-.3h1.7c3 0 6.2 0 9.3.5 2.6.6 5.6 2 6 4.9 1 5 .5 12-1 17-.5 1.7-1.8 2-3.4 2.3-3.5.4-7 .6-10.4.8l-3.8.2c.1 4.3.4 8.6.7 13 .7 11.7 1.4 23.7-.5 34.8-.9 7.5-3 14.9-5.7 21.9-3.1 8.5-9.1 16.1-15.4 22.6a75.3 75.3 0 0 1-36.2 21.8c-10.9 2.4-22.2 3-33.3 2.2a86.8 86.8 0 0 1-27-8.5c-10.5-6-18.5-15-24.8-25.2a134 134 0 0 1-15.5-41.6c-.5-2.2-.8-4.5-1.1-6.7-.5-2.9-.9-5.7-1.7-8.4-.4-1.8-2.6-3-4.1-4-6.7-3.3-16.4-.9-19 6.7-.5 2.8-.6 5.7-.6 8.6A132.1 132.1 0 0 1 443 525a70.2 70.2 0 0 1-22.5 29.6 72.9 72.9 0 0 1-64 7.8 62.9 62.9 0 0 1-18.8-14.2A107.3 107.3 0 0 1 317 505c-1.9-6.8-3-13.8-3-20.9l-4.9.9c-2.4.5-4.7 1-7.2 1.1-2.2.3-4.2-.6-5.3-2.6-2-3.8-2.5-8.4-1.8-12.6l.1-.5c.3-1.1.5-2.3 1.6-2.8 27.5-12.6 56-20.6 85.5-26.5 11.3-2.3 22.5-3.8 34-3 10 0 20 2.3 28.9 7a41.8 41.8 0 0 0 35.1 0c3-1.6 5-3.8 7-6 1.1-1.5 2.4-2.9 3.9-4.2 9.8-9.1 23-13.3 36.1-14.8 13.1-2.4 26.3-3 39.5-3.7h2.5c5.6-.2 11.1-.2 16.7-.2 7.4 0 14.9 0 22.3-.4Zm-23 6.3c8.3-.4 16.3-.5 24.1 2.9l2.2.9c3.1 1.3 6.8 2.8 7.9 6a98.4 98.4 0 0 1 8.3 40.1 96 96 0 0 1-5.2 37.2 60.6 60.6 0 0 1-18.2 23.9 76 76 0 0 1-17.8 10.2 66.4 66.4 0 0 1-29.3 6.2 95 95 0 0 1-17.2-3.2l-.9-.2c-6-1.5-10.7-4.6-15.7-7.9l-.8-.5a70 70 0 0 1-17.1-17c-2.8-4-4.6-8.7-6.3-13.3l-1.2-3.1c-4.7-12-6-24.6-5.9-37.3 0-7.8 1.2-17 5.5-23.6 5.1-6.4 12-12.2 19.8-15 9.3-2.8 19.2-4.3 28.8-5a320.7 320.7 0 0 1 39-1.3Zm-172.4 22H410a93.1 93.1 0 0 0-30 3.2l-6.8 1.5a164.8 164.8 0 0 0-30.5 8.8c-5.8 2.1-12 4.5-15 10.2-4.8 9.8-3.7 19.6-2.5 29.9l.4 3.3a92 92 0 0 0 13.1 33.3c5 8 11 15 19.4 19.6 12.8 7 28 6.1 41.4 1.6 11.4-4.5 21.8-9.9 28.6-20.4 8.8-14 14-30.7 15.5-47.2.9-9.3-.1-18.8-2.7-27.8-.5-1.4-1-3-2-4.1a35.6 35.6 0 0 0-19.1-11.4c-2.3-.4-4.8-.4-7.2-.5Z" fill="#000"/></g><g transform="translate(-161 -83)"><g fill="#000"><path d="M570.1 171.1c2.7-1 4.9.6 5.8 3 2.5 7.7 1 16.5-1.7 24a54 54 0 0 1 20.8-7c16.4-2 32.5 2.3 46.9 10a133.4 133.4 0 0 1 30.8 24.2 93.4 93.4 0 0 0 34.3 23.6 37.7 37.7 0 0 0 23.5.6c2-.4 5.2-1.7 6.9.1 1.7 1.5.7 4.3.4 6.2a52.7 52.7 0 0 1-18.7 29.3 61.2 61.2 0 0 1 30.7 28.1 89.6 89.6 0 0 1 9.9 43.8c.1 10.6-2 21-5.2 31a53 53 0 0 1 13.5 31 74 74 0 0 1-7.7 40.5c-.9 1.8-2.6 1.1-4.3 1.2a50.5 50.5 0 0 0-29.9 3.6c-2 .7-3.8 1.6-6.1 1.1-7.4-1.3-13.6-5.5-20.8-7.9a122 122 0 0 1 8.9 13.6c.7 1.4 1.7 3.2 1.7 4.9-.2 2.4-3.5 3.2-4.7 1-4-7.3-8.2-14.2-13.6-20.5-2.6-2.6.4-6.2 3.5-5.7 4.2.7 8.3 2.7 12.4 4-3.6-5-7.2-10.3-11.5-14.7-2-2.2-4.8-3.9-6.8-6.2-.2-1.4.2-2.8.6-4.1a81.3 81.3 0 0 0 .8-44.6c-3-12-8-23.4-16.2-32.9-5.2-2.2-10.3-4.5-15-7.5-11.4-6.8-20.8-16.1-31.9-23.1A51.7 51.7 0 0 0 578 319c-1.5.6-3.1.4-3.6-1.4-1.4-2.7.5-4.4 1.8-6.6 4.8-6.7 9.8-13.2 15-19.7-7.3 4-13.8 9.2-19.8 15a37.3 37.3 0 0 0-6.4 8.8l-5 .5c-2.4-2.8-3-6.1-6.4-8.2-6.3-4.1-15.4-3.7-22.5-2.4-18.9 3.8-37.4 10.1-57 10.7a53.4 53.4 0 0 1-31.7-8.7c-7.4 5-15.2 9-24.1 10.6a99.2 99.2 0 0 1-43.3-2.7c-7.6 6.1-12.8 13.6-18.9 21-6.1 8-12.2 16.3-16.8 25.1-1 1.6-1.8 3.7-3.3 4.8a30 30 0 0 1-13.9 4.3 37 37 0 0 1-24.5-5.7 28.3 28.3 0 0 1-11-18.5 56.8 56.8 0 0 1 3-29.5c.7-2.3 3.6-3.2 4.9-1 2.2 4.5 3.2 8.8 8.4 10.8 4.6 1.4 10.4-1.1 14.7-2.8a40.6 40.6 0 0 1-12.4-35 96 96 0 0 1 27.4-54 84.2 84.2 0 0 1 42-24.2c6.3-1.5 13-3.2 19.5-2.8 2.4 0 3.1 3.4 1.3 4.8a33.3 33.3 0 0 0-9 32.1c3.4-5.7 6.5-11.3 10.8-16.3a96.2 96.2 0 0 1 62.9-32.2c9.3-1.4 18.6-1.2 28-2 23.3-.5 46.7-3.6 67.9-14 5-2.4 9.2-6.4 14.2-8.8Z"/><path d="M699.8 472.2c2.2 3.5 3.8 7.5 5.6 11.3.9 2.2 2.3 4.4.8 6.8-1.2.4-2.2.6-3.4 0-1.9-2.6-2.8-6-4.3-8.9-1.4-3.5-3.7-6-3.2-10 1.5 0 3.5-.8 4.5.8Z"/></g><path d="M570.8 177.2c1.5 7-.1 14.8-3.2 21.3-.9 2.2-3.4 4.8-2.2 7.2.6 1 2.5 2.2 3.6 1.4 4-2 7.6-4.6 11.7-6.4a52.8 52.8 0 0 1 28.3-4.1 89 89 0 0 1 46.6 20.8c8.2 6.5 14.9 14.4 22.9 21.1 8.5 7 18 13.3 28.6 16.5a42.8 42.8 0 0 0 24.9.2 53.8 53.8 0 0 1-12.5 22.2c-2.7 2.6-6 4.1-9 6.2-1.6 1.3-1.9 2.7-.8 4.6 3.4 1 6.8 1.5 10 3 8.1 4 15.3 10 20.6 17.5a80.6 80.6 0 0 1 13.3 37.3c1 12.2.2 24.4-3.4 36.2-.6 2.2-1.8 4.4-2.2 6.7 2.4 3.3 5.8 5.8 7.7 9.5 9.7 16.7 8.5 36.3 1.6 53.8-.5.9-.8 3.2-2.3 2.7-9.5-1.4-18.9-.2-27.8 3.2-2 .7-4 1.9-6.2 2-1.5-.2-3-.7-4.5-1.2a107 107 0 0 0-21.4-26.7 91.4 91.4 0 0 0-12.4-77.9 53 53 0 0 0 31.9-5.7c3.2-1.6 6.9-3 9.8-5.2 2-2.2.1-4.9-2.5-5-10.4-.2-19.6-7.6-26.1-15.2-5-6.3-10.1-13.2-9.3-21.7l-2.5-.8-2.6 1c-1.6 5.4.4 10.1 2.9 14.9a58.4 58.4 0 0 0 28.7 26.3 51.3 51.3 0 0 1-25 6.2 54.5 54.5 0 0 1-23.4-7.8c-11.7-6.7-20.9-15.6-31.9-23a52.7 52.7 0 0 0-21.7-9c-9.2-1.2-18.9-1-27.8 2 5-7 10.2-13.8 15.8-20.3 1.4-1.6 2.8-3.3 4-5.1 1-1.4.4-3.7.4-5.3-2.1 0-4-.2-6 .9a96.3 96.3 0 0 0-35.1 27.5 22 22 0 0 0-10.9-8.5 53 53 0 0 0-28.4.5c-18.2 3.9-37.2 10.2-56 8.7-12-.7-23.8-7-31.1-16.6a44 44 0 0 1-3.4-44.6 57.7 57.7 0 0 1 26.3-26.1c-.6 4.8-.8 9.2 1 13.8a25.2 25.2 0 0 0 16.2 15c9.2 2.9 19.2 3.4 28.5 6.5 1.7.5 3.7 1.4 5.5 1.2 1.4-.1 2-2 2.7-3-1.6-1.4-3-2.7-5.2-3.4-8-2.8-17-3.8-25.5-5.6-3.4-.9-7-2-10-4-5.8-4-9.1-11.7-7.5-18.7 1.2-4.4 5.2-5.3 8-9l-1.2-3c-4.7-.5-9.3 2.6-13.6 4.4A62.4 62.4 0 0 0 425 252a48.6 48.6 0 0 0 13 51.8 75.3 75.3 0 0 1-11.4 5.8c-9.6 3.9-20.3 4-30.5 3.3a81 81 0 0 1-48.7-19.2c-2-1.9-3.2-4.4-5.2-6.4-2.1-.2-3.3.5-3.4 2.7 0 3.7 3.4 7 6 9.2a90 90 0 0 0 24 14c-3.4 3.4-6.8 6.8-9.9 10.6-8.5 10.4-17.5 21.3-23.9 33.1-1.6 3-3 5.6-6.4 6.7-7.2 2.1-16 1.8-23-1.1a21 21 0 0 1-11.6-11.6 45 45 0 0 1-1.3-25.2c2.9 2.6 5.4 5.6 9.4 6.3 6.6 1.2 12.6-1 18.5-3.6 2-1 3.8-2.2 4.3-4.5 0-2-2.1-3-3.4-4.3-5.7-4.7-9-11.4-10.3-18.6-1.4-9.4.3-18.6 3.4-27.5a99.8 99.8 0 0 1 27.6-40.3 82 82 0 0 1 43.7-19.3c-4.2 7.9-7 16-6 25.1.4 4 1 8.6 3.2 12 1.6 1.5 3.8 3.9 6.1 2.2 3-10 9-18.5 16.2-26a94.2 94.2 0 0 1 51.8-25c11.3-1.7 22.5-2.2 34-2.5 23.3-1 45.8-4.1 67-14.5 4.6-2.2 8.5-5.3 12.7-8Z" fill="#562306"/></g><g transform="translate(-161 -83)"></g></g></svg>