<svg xmlns="http://www.w3.org/2000/svg" viewBox="0 0 762 762" fill="none" shape-rendering="auto"><metadata xmlns:rdf="http://www.w3.org/1999/02/22-rdf-syntax-ns#" xmlns:xsi="http://www.w3.org/2001/XMLSchema-instance" xmlns:dc="http://purl.org/dc/elements/1.1/" xmlns:dcterms="http://purl.org/dc/terms/"><rdf:RDF><rdf:Description><dc:title>Adventurer</dc:title><dc:creator>Lisa Wischofsky</dc:creator><dc:source xsi:type="dcterms:URI">https://www.figma.com/community/file/1184595184137881796</dc:source><dcterms:license xsi:type="dcterms:URI">https://creativecommons.org/licenses/by/4.0/</dcterms:license><dc:rights>Remix of „Adventurer” (https://www.figma.com/community/file/1184595184137881796) by „Lisa Wischofsky”, licensed under „CC BY 4.0” (https://creativecommons.org/licenses/by/4.0/)</dc:rights></rdf:Description></rdf:RDF></metadata><mask id="viewboxMask"><rect width="762" height="762" rx="0" ry="0" x="0" y="0" fill="#fff" /></mask><g mask="url(#viewboxMask)"><path d="M396 164.8a224.8 224.8 0 0 1 104.8 42.4c6.2 4.9 12.5 9.4 18 15a225.4 225.4 0 0 1 71.8 149 58.5 58.5 0 0 1 50.9 42.2 71 71 0 0 1-27.6 76.5c-11 7.7-24.5 12-38 11.7-5 0-10-1.6-15-1.8-1.9 2.2-3.3 4.9-4.8 7.3A223.3 223.3 0 0 1 389 609.8c-11 .7-21.9 2-33 .7a223.7 223.7 0 0 1-178.8-342.3A223.4 223.4 0 0 1 352 163.5c14.6-1.4 29.4-.3 44 1.3Z" fill="#000"/><path fill-rule="evenodd" clip-rule="evenodd" d="M498.8 213.2A216 216 0 0 0 363 169c-13-.2-26.2 1.6-39 4a218 218 0 0 0-113.6 365.5 218.5 218.5 0 0 0 260.4 40.2c35-18.8 64.2-47.3 84.4-81.5l-3-1.6c-2.8-1.4-5.7-3-8-5-2.2-2-.3-5.8 2.7-4.7 1.5.7 3 1.6 4.4 2.4a55 55 0 0 0 59.6-3.6 64.5 64.5 0 0 0 25-69.8 53.1 53.1 0 0 0-24-31 52.6 52.6 0 0 0-47-2.8c-1.6.8-3.4 1.5-5 1.3-2.5-.2-2.8-4.2-.6-5.2 8-4 16.5-5.6 25.4-6.4a217 217 0 0 0-72-146.4c-4.4-4-8.7-8.1-13.9-11.3Zm107.6 196.2c2-1.2 1.3-5.1-1.4-5-2 0-4.2.8-6.2 1.6l-1.4.4a95.1 95.1 0 0 0-25.5 12.4c-2.2 2-2.2 4.4.1 6.2a92 92 0 0 0 5.2 2.8 36 36 0 0 1 13 9.2c-.2 1.9-2 3.4-3.4 4.5l-.2.2c-3.9 3-8.8 5-13.6 7-2.5 1-4.9 2-7.1 3.1-1.7.8-2.6 2.2-1.6 3.9 1 2 3.2 1.1 5 .5l.6-.2 5.4-2.3c5.4-2.3 11-4.5 15.4-8 2.7-2.1 5.1-5.1 5.4-8.7-.5-3.4-2.7-5.7-5.3-7.8a83 83 0 0 0-11.6-7.2l-1.1-.6c5.4-3 10.8-5.6 16.6-7.7l5-1.7a52 52 0 0 0 6.7-2.6Z" fill="#ecad80"/><g transform="translate(-161 -83)"><path d="M561.9 423.3c1.8.4 1.9 1.9 2 3.5 0 6.7-1 13.4-.8 20.1 8.3.6 16 2 24 4.5 3.2-7.1 6-14.4 8.8-21.6 1-1.8 1.5-4.1 4-3.8 2.4.3 2.6 3 1.8 4.8l-9 22.6a69.9 69.9 0 0 1 18.1 10.8c5-4.6 9.7-9.4 14.7-13.8 1.6-1.6 3.3-1 5.3-1.1-.2 2 .3 3.6-1.4 5.1-4.7 4.8-9.7 9.3-14.6 13.9a30 30 0 0 1 6.7 16.7c.7 9.9-4.8 18.2-12 24.4a78.6 78.6 0 0 1-40.5 16.1c-16.6 1.9-33.8.9-49.5-5A56.4 56.4 0 0 1 495 504c-5-6.4-7.8-14.7-5.7-22.8 2.4-9.9 9.9-17.3 18.3-22.4 14.8-9 32.4-12.1 49.5-12.1.2-6.6.5-13.2 1.1-19.7 0-2 1.2-4.3 3.6-3.7ZM372 441.4c2-.2 2.6 2.2 3.1 3.6 1.2 5 1.3 10.2 2.2 15.3a99 99 0 0 1 25.7.7c10.9 2 22 6 30.1 13.9 5 4.6 8.5 11.2 8.3 18.1a27 27 0 0 1-10 18.5 65 65 0 0 1-33 13.7 84 84 0 0 1-47.3-6.3c-8.5-4.1-17-11.2-19.2-20.8-1.3-5.2 0-10 2-14.8-3.9-3.5-7.7-7-11.5-10.7-.8-1-2.4-2.2-2-3.6 0-2.6 3.5-3 5-1.4 4 3.5 7.7 7.4 11.7 10.9 3.4-3.6 7-6.6 11.1-9.2l-8.2-18.4c-1.1-2.2-.9-4.4-.7-6.8 1.2.2 2.6.3 3.8.8 1.2 1.2 1.8 3 2.6 4.5 2.5 5.7 5.1 11.4 7.5 17.2 6-2.6 12-4.3 18.3-5.6-.4-5.4-1.7-10.6-2-16 0-1.6.4-4.1 2.5-3.6Z" fill="#000"/><path d="M539.5 453.7a103 103 0 0 1 44.2 2.6c9.5 3 19.2 7.5 26 15 4.3 5 7 11.1 6 17.7-1.1 7.2-5.8 13-11.4 17.3a73.5 73.5 0 0 1-31.1 12.8 101.6 101.6 0 0 1-47.7-2.6c-9.4-3-19-7.8-25.5-15.5-4.3-5-6.9-12.4-4.9-19 1.6-6.6 6.7-12 12-16a76 76 0 0 1 32.4-12.3ZM371.5 467c15.6-3 33-1.8 47.4 5 6.4 3 13.4 8.2 15.8 15.1 2 5.7.3 11.8-3.3 16.3a43.5 43.5 0 0 1-18.6 12.3 80.5 80.5 0 0 1-39.8 3.8c-9-1.3-18.4-4.3-26-9.6-5.1-4-9.5-9-9.8-15.9-.2-6.6 3.9-12 8.7-16.1a59.4 59.4 0 0 1 25.6-11Z" fill="#fff"/><path d="M592.2 469.2c2.2-1.6 4.7-.3 6 1.7 1.8 3 2.1 6.6 2.5 10.1.4 5.2.8 10.7-.3 15.9-.3 1.3-1 2.6-2 3.5-3 1.4-6.9-1.3-7.6-4.2-2-6.2-2-13.2-1.4-19.7.4-2.3.6-5.9 2.8-7.3ZM413.3 476.3a4 4 0 0 1 6 2.4c1.8 5.1 1.9 11 2 16.3-.1 3.1-.4 8-3.8 9.5-2.6 1-4.6-1.4-5.4-3.6a45.1 45.1 0 0 1-1.5-17c.2-2.3.4-6.2 2.7-7.6Z" fill="#000"/></g><g transform="translate(-161 -83)"><path d="M531 353.9c17 2 34 7.4 48.6 16.5a57 57 0 0 1 18.3 16.9c.9 1.2 1.2 3.5-.2 4.3-1.2 1.2-2.9.5-4.2 0a143 143 0 0 0-54-15c-13.4-.9-28.2-1-41 3.8-3 1-5.6 3-8.5 3.8-1.4.3-2.5-1-3-2.2a18 18 0 0 1 .3-14.8 23 23 0 0 1 13.3-10.7A72.5 72.5 0 0 1 531 354ZM414 408c8.2 2.4 14.6 10.9 13.6 19.5-1.9.6-3.6 1-5.6.7a108 108 0 0 0-42.8 5.9c-14 4.7-28.5 11.6-39.4 21.8-1.4 1.3-4.3 3-5.6.7-1.7-2.3 0-4 1.4-6a128 128 0 0 1 49-39c8.8-3.6 20-6.5 29.4-3.5Z" fill="#000"/></g><g transform="translate(-161 -83)"><path d="M524.2 555.8c.5 6.9-.8 13.4-1.6 20.2-2.7 24.2-9.3 48-19.1 70.2-3.7 7.4-6.8 15.8-14 20.4-4.2 3-10.3 1.7-14.6-.6-9.4-4.6-15.1-12.2-21.7-20.1a199 199 0 0 1-26-44c-3.6-8.2-7-16.6-10.3-24.8-.9-2.1-1.2-4 1-5.4 4.8 0 9.4 1.5 14.1 1.5 9.3.2 18.7.4 28-.8 20-2.3 39.6-8.3 58-16.5 2.1-1 4-.6 6.2-.1Z" fill="#000"/><path d="M519 562c-2 15.1-4 30.2-8 45a209.4 209.4 0 0 1-19.1 49c-2.2 3.4-5.3 7.3-10 6.4-7.3-1.5-14-8-18.6-13.7a169 169 0 0 1-24.6-36.4c-6.1-11-10.6-22.9-15.7-34.5l14.4 1.2c1.1 6 4.6 11.5 8.5 16 5 6 12.2 9.9 20 10 6.3-.4 12.2-3 16.8-7.3 8-7.4 12-17 14.4-27.4A265 265 0 0 0 519 562Z" fill="#8F2E45"/><path d="M490.6 572.1c-2.5 8.8-7 18.4-14.9 23.6a17.7 17.7 0 0 1-18.6 1.1c-7-3.8-10.9-10.5-13.9-17.6 16.1-.4 32-2.3 47.4-7Z" fill="#fff"/></g><g transform="translate(-161 -83)"></g><g transform="translate(-161 -83)"></g><g transform="translate(-161 -83)"><g fill="#000"><path d="M534 131.3c5.7.5 11.4 3.3 14.7 8a60 60 0 0 1 8.2 20.8c2.8 12.5 4.9 25.3 6.9 38 9.6-16.4 15.6-33 29.1-47.2 5.2-5.4 12.9-7.3 20.1-8 8 .2 16.7 3.4 24.5 5.5 5.6 1.7 11.6 3.3 16.7 6.3 4 2.5 6.5 6.6 7 11.2 1.2 15.4-3.9 28-8.7 42.1a178 178 0 0 1 45-18.7c6.4-1.3 13.1-.1 18.4 3.9a64.4 64.4 0 0 1 15.2 15.7c2.2 3.4 3.8 7 3.4 11-.5 8.2-4.6 16.3-7.9 23.7-2.6 6-6 11.6-9.7 17.1 6.8-1 13.4-2.8 20-4 6.3-1.1 13.4-2.9 19.7-1.2 5.8 1.6 10 7 12.8 12.1 3.6 7.6 6 15.9 8 24 .8 3.6 1.2 7-.5 10.4-2.6 5.7-7.9 8.8-13.2 11.8a144 144 0 0 0-12.9 8c4.6.7 10.4 1.3 14.1 4.2 4 3.4 4 9.2 4 14 0 5.5-1.2 10.7-5.6 14.4a41.6 41.6 0 0 1-20.6 7c4.2 8.7 7 18.2 9.2 27.5 3.5 15.8 5.1 32 5.2 48.1-.6 7.2-.4 14.9-2.5 21.8-2.6 1.6-6.6.1-9.6.7-7 1-14.5 2.6-21 5.5-3.5 1.5-5.4 4.3-8 7-4 4.9-8.6 9.4-12.7 14.3-2 2.3-4 4.8-6.3 6.8-2 2-6.2-.4-6-3-.2-10 .3-19.9-.7-29.8-1.9-19.6-6.2-40-14.8-57.8a61.6 61.6 0 0 0-20.5-25.6c-4-2.5-8.3-3.4-13-4a3 3 0 0 1-2.5-4c1.3-3.5 3.5-6.7 5.6-9.8 6.4-9.5 13.7-18.4 21.8-26.5-23-7.3-46.4-10.8-70.4-12.8a625 625 0 0 0-208.2 19.5 282.2 282.2 0 0 0-45 16.9c-2.1 1-3.9 2.4-5.7 3.7-.6.5-1.4.5-2.4 0-1.5-1.2-1-3.8-.6-5.4 1.6-6.8 3.8-13.5 6.4-20-10.7-4.1-21.2-8.7-32-12.5a41.5 41.5 0 0 1-17.2-9.9 23.9 23.9 0 0 1-5.6-13.1c-1-7-1.5-15 .8-21.8a18 18 0 0 1 12-11.2c8-2.4 16-2.6 24.2-2.1-4.4-5.6-11-11.6-12.2-18.8-.8-6 3.3-12.6 6.8-17.2a73.4 73.4 0 0 1 15-16c4.6-3.1 10-2.5 15-.7 15.7 5.7 31 13.6 44.4 23.8-5.9-10.7-10.7-22-14.9-33.5-1.7-4.8-2.8-10.6 0-15.2a74.2 74.2 0 0 1 27.3-25.7c4.6-2.6 9-4.8 14.5-3.9 4.3.9 8.3 3.8 12 6.3 12.9 9.6 24 21.8 34.3 34.2.9-12.4-.3-24 2.2-36.3 1.4-6.6 4.7-13 10-17.3 4.4-3.8 10.2-5.5 15.6-7.2 5.5-1.8 11-2.4 16.8-3.3 8-1.2 15.8-2.4 24-1.8Z"/><path d="M716.3 478.7c.7 2 .5 3-.8 4.8-4 5.2-8.6 10-12.8 15.2-2 2.5-4 5.4-6.4 7.7-1.1 1.1-3.7 1-4.3-.6-1-2.1.5-3.5 1.7-5 4.6-5.8 9.4-11.4 14.2-16.9 1.6-1.7 3-3.7 4.8-5.2 1.2-1.1 2.3-.5 3.6 0Z"/></g><path d="M532 137.1a15 15 0 0 1 12.4 6.5c3.8 5.9 5.6 13.6 7.2 20.4 2.9 13.6 5.2 27.3 7 41 0 2.5 1.7 3.3 3.4 4.6 4-2.3 5-6.3 7.4-10.1 9-15.3 15.1-30.4 27.3-43.8 3.8-4.2 8.8-5.7 14.3-6.5 6.4-.7 13.4 1.7 19.5 3.4 6.8 2.1 14.4 3.7 20.6 7.3 3.6 2 4.4 6.3 4.5 10-.4 9.1-2.4 17.9-5.4 26.4-1.6 4.8-3.9 9.7-4.6 14.8-.1 1.9 1 4.9 3.4 4.7 1.9-.2 3.7-1.6 5.4-2.4 11-6.6 23.2-11.6 35.4-15.7 5.3-1.6 10.5-3.6 16.2-2.5 3.8.7 6.6 3 9.5 5.3 4.2 3.7 8.3 8 11.2 12.8 1.1 2 2.3 4.3 2 6.7-1 8-5.3 15.9-8.6 23.2-2.4 5.4-5.6 10.2-8.8 15.2-1.2 2-3 4.2-2.6 6.7.9 1.6 2.3 2.5 4.2 2 11.7-2 23.4-4.7 35.1-6.4 3.9-.6 8.4.3 11.2 3.1 5.2 4.8 7.5 12.7 9.7 19.2 1.3 4.9 3.7 10.8 2.8 15.8-1.6 4.7-7 7.5-11 9.8-5.5 2.8-10.4 6.4-15.5 9.6-1.5 1-2.6 2.3-3.7 3.7 1.1 1.5 1.6 3.4 3.6 4 5.7 1.9 11.6 1.7 17 4.9 1.2 4.8 1.4 9.8.2 14.8-.8 2.9-3.1 4.7-5.8 6a45.2 45.2 0 0 1-21.6 4l-1 2.6c2.7 4.8 5.4 9.4 7.2 14.7 5.8 16.3 8.4 33.8 9.7 51 .3 10 .5 20-1.1 29.8a92 92 0 0 0-28.5 5.9c-2 .7-3.7 2.8-5.2 4.4-6.3 6.9-12.8 13.6-18.9 20.6 0-7.2.2-14.4-.7-21.6a189 189 0 0 0-10-50.3 103.2 103.2 0 0 0-15.7-29.4 40.8 40.8 0 0 0-24.3-16 158.7 158.7 0 0 1 28.3-33.6c1.8-2 .6-4.7-2-5.3-22-7.8-45.5-11.6-68.7-14-35.2-3.2-70.8-2.9-106-.2-40.6 3.5-81.9 10-120.8 22.2a260.3 260.3 0 0 0-35.8 14c1.3-4.2 2.7-8.5 4.5-12.6.6-1.9 1.7-3.6 1.1-5.6-1.5-1.9-4.3-2.8-6.5-3.8-9.2-3.7-18.3-7.8-27.7-11.3-5.1-2-11-4-15.2-7.7-3.7-3-5-7.8-5.7-12.3a44 44 0 0 1 .7-17.6c1.2-3.6 3.8-6.2 7.3-7.5 8-2.6 15.9-2.6 24-2 2.6 0 5 .7 7.2-.9.8-1.4 1-2.8 0-4.1-4-6-10.1-11.3-13.5-17.8-2.1-5.1.8-9.8 3.6-14 4.4-5.6 9-12 14.8-16.2 2.9-2.1 6.2-1.3 9.3-.3A169.9 169.9 0 0 1 382 235c4.4 2.9 8.4 6.5 13 9 2.4 1.1 5.3 1 6-2-.8-4-3-7.7-4.7-11.3-5.2-9.8-9.4-20.2-13.2-30.7-1-4-2.8-7.3-.3-11.1a69.5 69.5 0 0 1 25.6-23.5c4.2-2.2 8.2-4.2 12.7-1.6 11.8 6.7 22 17.2 31 27.1 4 4.3 7.7 9 11.3 13.7 1.4 2.6 7 2.6 7.5-.6.7-13.8-.3-28.3 2.6-41.8a23 23 0 0 1 12-16.6 78 78 0 0 1 23.3-6.3c7.7-1.2 15.3-2.4 23.2-2.2Z" fill="#6a4e35"/></g><g transform="translate(-161 -83)"></g></g></svg>