<svg xmlns="http://www.w3.org/2000/svg" viewBox="0 0 762 762" fill="none" shape-rendering="auto"><metadata xmlns:rdf="http://www.w3.org/1999/02/22-rdf-syntax-ns#" xmlns:xsi="http://www.w3.org/2001/XMLSchema-instance" xmlns:dc="http://purl.org/dc/elements/1.1/" xmlns:dcterms="http://purl.org/dc/terms/"><rdf:RDF><rdf:Description><dc:title>Adventurer</dc:title><dc:creator>Lisa Wischofsky</dc:creator><dc:source xsi:type="dcterms:URI">https://www.figma.com/community/file/1184595184137881796</dc:source><dcterms:license xsi:type="dcterms:URI">https://creativecommons.org/licenses/by/4.0/</dcterms:license><dc:rights>Remix of „Adventurer” (https://www.figma.com/community/file/1184595184137881796) by „Lisa Wischofsky”, licensed under „CC BY 4.0” (https://creativecommons.org/licenses/by/4.0/)</dc:rights></rdf:Description></rdf:RDF></metadata><mask id="viewboxMask"><rect width="762" height="762" rx="0" ry="0" x="0" y="0" fill="#fff" /></mask><g mask="url(#viewboxMask)"><path d="M396 164.8a224.8 224.8 0 0 1 104.8 42.4c6.2 4.9 12.5 9.4 18 15a225.4 225.4 0 0 1 71.8 149 58.5 58.5 0 0 1 50.9 42.2 71 71 0 0 1-27.6 76.5c-11 7.7-24.5 12-38 11.7-5 0-10-1.6-15-1.8-1.9 2.2-3.3 4.9-4.8 7.3A223.3 223.3 0 0 1 389 609.8c-11 .7-21.9 2-33 .7a223.7 223.7 0 0 1-178.8-342.3A223.4 223.4 0 0 1 352 163.5c14.6-1.4 29.4-.3 44 1.3Z" fill="#000"/><path fill-rule="evenodd" clip-rule="evenodd" d="M498.8 213.2A216 216 0 0 0 363 169c-13-.2-26.2 1.6-39 4a218 218 0 0 0-113.6 365.5 218.5 218.5 0 0 0 260.4 40.2c35-18.8 64.2-47.3 84.4-81.5l-3-1.6c-2.8-1.4-5.7-3-8-5-2.2-2-.3-5.8 2.7-4.7 1.5.7 3 1.6 4.4 2.4a55 55 0 0 0 59.6-3.6 64.5 64.5 0 0 0 25-69.8 53.1 53.1 0 0 0-24-31 52.6 52.6 0 0 0-47-2.8c-1.6.8-3.4 1.5-5 1.3-2.5-.2-2.8-4.2-.6-5.2 8-4 16.5-5.6 25.4-6.4a217 217 0 0 0-72-146.4c-4.4-4-8.7-8.1-13.9-11.3Zm107.6 196.2c2-1.2 1.3-5.1-1.4-5-2 0-4.2.8-6.2 1.6l-1.4.4a95.1 95.1 0 0 0-25.5 12.4c-2.2 2-2.2 4.4.1 6.2a92 92 0 0 0 5.2 2.8 36 36 0 0 1 13 9.2c-.2 1.9-2 3.4-3.4 4.5l-.2.2c-3.9 3-8.8 5-13.6 7-2.5 1-4.9 2-7.1 3.1-1.7.8-2.6 2.2-1.6 3.9 1 2 3.2 1.1 5 .5l.6-.2 5.4-2.3c5.4-2.3 11-4.5 15.4-8 2.7-2.1 5.1-5.1 5.4-8.7-.5-3.4-2.7-5.7-5.3-7.8a83 83 0 0 0-11.6-7.2l-1.1-.6c5.4-3 10.8-5.6 16.6-7.7l5-1.7a52 52 0 0 0 6.7-2.6Z" fill="#9e5622"/><g transform="translate(-161 -83)"><path d="M556 424a65.2 65.2 0 0 1 65.3 75.6c-1 7.5-4 14.2-6.8 21.2-1.4.6-2.9 1.5-4.4 1.8-2.4 0-4.8-1-7-1.6a178.7 178.7 0 0 0-49.1-7.6 96 96 0 0 0-43 9.6c-3.1 1.3-6 4-9 1.3A65 65 0 0 1 556 424Z" fill="#000"/><path d="M557 429.9a58.9 58.9 0 0 1 57.1 43.1 59.3 59.3 0 0 1-4.3 43.5c-5.3-.6-10.1-2.6-15.4-3.8-16-3.7-33-5.8-49.4-4.4a92 92 0 0 0-39.3 11.6 59.5 59.5 0 0 1 51.3-90Z" fill="#fff"/><path d="M381.3 447a55.4 55.4 0 0 1 59.8 45.6 54.9 54.9 0 0 1-101 38.2c-5-8-7.6-17.3-8.2-26.7a55 55 0 0 1 49.4-57Z" fill="#000"/><path d="M376.5 453.7a49.3 49.3 0 1 1 20.9 96.3 49.3 49.3 0 0 1-21-96.3Z" fill="#fff"/><path d="M519.4 474.8a15.9 15.9 0 1 1 7.2 30.8c-9.1 2.3-19-5-19-14.6a15.7 15.7 0 0 1 11.8-16.2ZM403.4 485.6A16 16 0 1 1 399 514a15.9 15.9 0 0 1 4.4-28.4Z" fill="#000"/></g><g transform="translate(-161 -83)"><path d="M531 352.3a85.8 85.8 0 0 1 60.6 15.1 82.9 82.9 0 0 1 29 33c1 3-.4 3.8-2.6 5.3-4-2.2-6.9-5.6-10.5-8.3-13-9.7-28-16.3-43.7-20.2-15-3.5-30.6-5-45.8-2.8-4.8.4-9.3 2-14 2.7-2.4.2-5.1-1.2-4.2-4 1.9-4.2 4.2-8.6 7.6-11.7a45 45 0 0 1 23.6-9ZM383 428.8c13.4-.8 26.3-.6 39 4.3 5.9 2.3 11.6 5.9 14 12a14 14 0 0 1-1.8 12.6c-4.9-.7-9.4-2.6-14.1-3.8a203 203 0 0 0-71-6c-5 .4-10 2-14.8 1.8-1.8-.5-1.2-2.2-1-3.5.9-2.5 3.6-3.9 5.8-5.1a119.2 119.2 0 0 1 43.9-12.3Z" fill="#000"/></g><g transform="translate(-161 -83)"><path d="M524.2 555.9c.6 7-.9 13.2-1.6 20.1-2.7 24.2-9.3 48-19.1 70.2-3.7 7.4-6.7 15.8-14 20.4-3.8 2.8-9 2-13.2.1a44 44 0 0 1-12.4-8.6 171.3 171.3 0 0 1-30-42.1c-6.7-12.6-11.6-25.8-17-38.9-1-2.1-1.2-4.1 1-5.4 4.4-.1 8.7 1.4 13.1 1.4 9.9.4 20 .5 29.8-.9 17.7-2 35.1-7.1 51.6-13.9 4.2-1.5 7-4.3 11.8-2.4Z" fill="#000"/><path d="M519 562a298 298 0 0 1-9 48 52 52 0 0 0-26.4 6.6 67 67 0 0 0-27.3 23.9A197.7 197.7 0 0 1 437 609c-5.4-10.1-9.4-20.7-14-31.2 9.4.8 18.5 2 28 1 23.2-.7 46.7-7.7 68-16.8Z" fill="#8F2E45"/><path d="M508.2 616.1a184 184 0 0 1-15.6 38.5 17.5 17.5 0 0 1-6.7 7.4c-4 1.7-9-1.2-12.4-3.5-5.4-3.4-8.6-8.3-12.9-12.7A36 36 0 0 1 471 632c7.8-6.7 17.1-12 27-15 3.4-1 6.7-1.1 10.2-1Z" fill="#EA869E"/></g><g transform="translate(-161 -83)"><path d="M611.4 569.4c4.5-2.8 10.3 1.4 8.7 6.6-1.2 4.5-7.3 5.3-10 1.9a6 6 0 0 1 1.3-8.5ZM337.1 571c2.3-1.3 5.7-.6 7.4 1.4 3 3 1 9.6-3.6 9.3-2.1-1.8-3.5-4.4-4.6-7-.6-1.6-.8-2.6.8-3.7ZM650.5 571.6c1.3-.7 3-.5 4.4-.3 3.4.8 5.4 5.1 3.5 8.2-1.6 2.9-5.1 4-8 2.2-3.9-2.2-3.7-8 0-10.1ZM372.2 574.1c4-2.2 9.5 1.2 8.7 5.9-.4 4.7-6.1 6.3-9.5 3.6-3-2.5-2.5-7.4.8-9.5ZM632.5 591.6c4.2-1.5 8.9 1.8 8 6.4-.7 5-7.1 6.3-10.1 2.6-2.6-3-1.3-7.3 2.1-9ZM358 593.8c3.7.4 6.4 4.5 4.8 8-1.2 2.5-3.3 3-5.8 3.8-1.6-2.2-3.7-4.3-4.9-6.8-.8-3.2 3-5.6 6-5Z" fill="#7A624E"/></g><g transform="translate(-161 -83)"></g><g transform="translate(-161 -83)"><g fill="#000"><path d="M453.2 221.6c2.2-.3 5-1 7 .2 1.2 1.4 1.4 3.2.2 4.7-1.8 2.1-4.2 3.8-6.4 5.5a75.8 75.8 0 0 0-9.3 9 387.8 387.8 0 0 1 129.3-7.7c29.1 3.2 59.2 9.6 86 21.7 14.5 6.6 29 15.3 39.9 27.1a52 52 0 0 1 14.7 31.8c4 .8 8 1.6 11.5 4A51 51 0 0 1 743 340a159 159 0 0 1 11.3 44.7c1.4 14.2 2.2 28.4 1.4 42.7-.8 9.5-1.3 19-3 28.5-.2 1.3-.3 2.5-1.8 3-6.7.7-14.4.7-20.7 3.2-9 3.5-17.6 7.2-25.7 12.3-1.3.7-3 2-4.5 1.7a3 3 0 0 1-2.3-4.5c2.5-5.4 5.7-10.5 8.7-15.8-6 2.7-12.1 5.1-17.7 8.6-1.7-1.2-3.4-2.1-3.6-4.5-.8-10.4-.6-21-1.6-31.4-1.4-1.3-3-2.4-4.6-3.5a167 167 0 0 1-18.1-13.9c-1.6-1.4-3-3-4-5a238.6 238.6 0 0 1-20-74.8c-7.9 0-15.5-.6-23.3-1.6 2 1.8 4.8 3.5 5.6 6.2-.6 2.4-2.5 3-4.5 3.9a139 139 0 0 1-51.6 8.3c-28.2-.3-56.4-6.5-82.4-17.3 3.5 4 7 7.9 11.2 11.3 1.5 1.4 3.6 2.9 4.4 4.8-.4 2.8-2.4 4.2-5.2 3.9-17.5-1.6-34.6-5-52-8.3 0 5.9 1.3 11.6 1.6 17.5-.5 2-3 2.4-4.6 1.4-1.5-1-2.8-2.2-4-3.4-9-8.6-17.7-17-25.4-26.6-1.4-1.5-2.7-3.7-4.8-3.9-7.5-1-15.2-2.3-22.8-2.5-4-.3-8.1 2.5-11.7 4.1-4 2.2-8.7 3.9-12.2 6.8-3.8 4.6-7 9.9-10.3 14.9a3 3 0 0 1-1.8 1.4 40.7 40.7 0 0 1-22.4-11A74 74 0 0 1 303 310c-.6-2-1.3-4.9.9-6.2 1.8-1.2 4.5.3 6.3 1 6.4 3.1 12.3 6.6 19.3 8.3a32 32 0 0 1-2-18.9 65.8 65.8 0 0 1 24.4-40.3c3-2.3 6.4-5 10-6.2 2.9-1 5.2 1.6 4.6 4.3-1.3 5.3-3.6 10.3-5 15.6a185 185 0 0 1 40-29.2 182 182 0 0 1 51.7-16.8Z"/><path d="M712.3 472.3c2.2-1.2 4.7 1.3 3.7 3.5-1.6 1.8-4 3-6.1 4.1-6.1 3.3-12 6.8-17.9 10.4l-2.7-1.1c.2-1.3 0-2.9 1.1-3.8 3-2.6 7-4.4 10.4-6.6 3.9-2.1 7.6-4.6 11.5-6.5Z"/></g><path d="M450.1 228c-5.2 4.8-10 9.5-13.8 15.4-.8 1.2-1 2.4-.7 3.8 1.9 1.8 3.7 1 6 .6 40.5-10.5 83.7-13 125.4-9.5 29.5 2.8 59.9 8.8 87.2 20.5a127.8 127.8 0 0 1 38.1 23.9A51 51 0 0 1 708 309c.7 2.9.1 6.7 1.7 9.3 1.4 2.4 4 1.6 6.3 2 5 .2 9.8 4 13 7.7a77 77 0 0 1 13.5 27.5c3.9 13.1 6 26.9 7 40.5 1 19.3.7 38.7-2.1 57.9-6.6.8-12.9.9-19.2 3.2-7.4 1.8-14.3 5.9-21.2 9.1 2-3.7 4.4-7.4 6-11.3a6 6 0 0 0 0-4.8c-2-1.6-4-1-6.1-.2-5.5 2.2-10.8 4.7-16 7.3-1-10.2-.9-21-1.8-31.1-2.4-3-6.2-4.7-9.2-7-5.8-4.1-12.3-8.3-17.1-13.5a292 292 0 0 1-15-42.6 171.7 171.7 0 0 1-5.7-35c-1-1.4-3.4-2-5-2-9-.3-18.3-.4-27-2.3-2.4-.5-4.5-.8-6.1-2.6-3.5-3.2-6.3-7.4-10.2-10-3-.6-4.4 2.3-2.6 4.6 6.3 6.8 12.9 13.3 19.9 19.3-15 5.7-32 7.6-48.1 7.6-30-.7-60.1-7.6-87.4-20.3-2.4-1-3.8-1-6 .4-1.3 2.5.2 4 1.7 6 4.6 5.5 9.8 10.7 14.8 15.8-15-1.5-30.1-4.5-45-7.2-2.9-.5-5.9-.2-7 2.9-1 4.1 0 9 .6 13.2-7.5-7.5-15.2-15-21.9-23.2-5.3-6.4-10.4-13-15.4-19.6-1-1.1-2.6-2.9-4.2-2.3-2 .6-2.2 3-1.2 4.6 2 3 4.5 5.9 6.6 8.9-6-1.3-12-1.4-18-2.2-2.4-.2-4.4-.7-6.6.4-7.4 3.4-14.7 7.1-21.8 11.1-4.2 4.3-7.2 10.1-10.7 15-6-1.2-11.7-4.1-16.2-8.4a66.7 66.7 0 0 1-16.2-27.2c6.7 3.1 14.4 7.6 21.9 7.8 2.2 0 5 .2 6.3-2 1.2-1.8-.4-3-1.3-4.4-3.4-4.2-3.4-10.1-3-15.3A62 62 0 0 1 360 255c-2 6.4-4.6 13.3-5 20-.2 3.1 3.3 4.2 5.2 2.2a185.3 185.3 0 0 1 42.3-32.8c15-8 31-13 47.7-16.4Z" fill="#6a4e35"/></g><g transform="translate(-161 -83)"></g></g></svg>