<svg xmlns="http://www.w3.org/2000/svg" viewBox="0 0 762 762" fill="none" shape-rendering="auto"><metadata xmlns:rdf="http://www.w3.org/1999/02/22-rdf-syntax-ns#" xmlns:xsi="http://www.w3.org/2001/XMLSchema-instance" xmlns:dc="http://purl.org/dc/elements/1.1/" xmlns:dcterms="http://purl.org/dc/terms/"><rdf:RDF><rdf:Description><dc:title>Adventurer</dc:title><dc:creator>Lisa Wischofsky</dc:creator><dc:source xsi:type="dcterms:URI">https://www.figma.com/community/file/1184595184137881796</dc:source><dcterms:license xsi:type="dcterms:URI">https://creativecommons.org/licenses/by/4.0/</dcterms:license><dc:rights>Remix of „Adventurer” (https://www.figma.com/community/file/1184595184137881796) by „Lisa Wischofsky”, licensed under „CC BY 4.0” (https://creativecommons.org/licenses/by/4.0/)</dc:rights></rdf:Description></rdf:RDF></metadata><mask id="viewboxMask"><rect width="762" height="762" rx="0" ry="0" x="0" y="0" fill="#fff" /></mask><g mask="url(#viewboxMask)"><path d="M396 164.8a224.8 224.8 0 0 1 104.8 42.4c6.2 4.9 12.5 9.4 18 15a225.4 225.4 0 0 1 71.8 149 58.5 58.5 0 0 1 50.9 42.2 71 71 0 0 1-27.6 76.5c-11 7.7-24.5 12-38 11.7-5 0-10-1.6-15-1.8-1.9 2.2-3.3 4.9-4.8 7.3A223.3 223.3 0 0 1 389 609.8c-11 .7-21.9 2-33 .7a223.7 223.7 0 0 1-178.8-342.3A223.4 223.4 0 0 1 352 163.5c14.6-1.4 29.4-.3 44 1.3Z" fill="#000"/><path fill-rule="evenodd" clip-rule="evenodd" d="M498.8 213.2A216 216 0 0 0 363 169c-13-.2-26.2 1.6-39 4a218 218 0 0 0-113.6 365.5 218.5 218.5 0 0 0 260.4 40.2c35-18.8 64.2-47.3 84.4-81.5l-3-1.6c-2.8-1.4-5.7-3-8-5-2.2-2-.3-5.8 2.7-4.7 1.5.7 3 1.6 4.4 2.4a55 55 0 0 0 59.6-3.6 64.5 64.5 0 0 0 25-69.8 53.1 53.1 0 0 0-24-31 52.6 52.6 0 0 0-47-2.8c-1.6.8-3.4 1.5-5 1.3-2.5-.2-2.8-4.2-.6-5.2 8-4 16.5-5.6 25.4-6.4a217 217 0 0 0-72-146.4c-4.4-4-8.7-8.1-13.9-11.3Zm107.6 196.2c2-1.2 1.3-5.1-1.4-5-2 0-4.2.8-6.2 1.6l-1.4.4a95.1 95.1 0 0 0-25.5 12.4c-2.2 2-2.2 4.4.1 6.2a92 92 0 0 0 5.2 2.8 36 36 0 0 1 13 9.2c-.2 1.9-2 3.4-3.4 4.5l-.2.2c-3.9 3-8.8 5-13.6 7-2.5 1-4.9 2-7.1 3.1-1.7.8-2.6 2.2-1.6 3.9 1 2 3.2 1.1 5 .5l.6-.2 5.4-2.3c5.4-2.3 11-4.5 15.4-8 2.7-2.1 5.1-5.1 5.4-8.7-.5-3.4-2.7-5.7-5.3-7.8a83 83 0 0 0-11.6-7.2l-1.1-.6c5.4-3 10.8-5.6 16.6-7.7l5-1.7a52 52 0 0 0 6.7-2.6Z" fill="#9e5622"/><g transform="translate(-161 -83)"><path d="M559 424.1a65.3 65.3 0 0 1 57.5 38.4l23.8-15c1.3 1 2.4 2.2 3.6 3.4-3.2 3.6-7.1 5.4-11 8l-14.3 9a65.8 65.8 0 0 1-18 69.8 64.6 64.6 0 0 1-42.6 16.8 65.7 65.7 0 0 1-61.5-90 65.1 65.1 0 0 1 62.5-40.4Z" fill="#000"/><path d="M549.3 430.3a59.6 59.6 0 1 1 15.1 118.2 59.6 59.6 0 0 1-15.1-118.2Z" fill="#fff"/><path d="M414 454a55 55 0 1 1-79.4 30.7c-5.8-3.6-12.1-6.6-17.7-10.5-2-1.1-1.5-4.2.7-4.7 1.6-.5 3.1.6 4.6 1.3l14.4 8.5A55.2 55.2 0 0 1 414 454Z" fill="#000"/><path d="M378.3 453.3a49.3 49.3 0 1 1 17.2 97.1 49.3 49.3 0 0 1-17.2-97.1Z" fill="#fff"/><path d="M527.3 466.2a24 24 0 0 1 20.2 7.3 23.9 23.9 0 0 1-2.3 34.7 23.9 23.9 0 0 1-38.7-20.2 23.8 23.8 0 0 1 20.8-21.8ZM358.5 480.8a21.8 21.8 0 1 1 11.6 42 21.9 21.9 0 0 1-25.7-14 22.3 22.3 0 0 1 14.1-28Z" fill="#000"/></g><g transform="translate(-161 -83)"><path d="M531 353.9c17 2 34 7.4 48.6 16.5a57 57 0 0 1 18.3 16.9c.9 1.2 1.2 3.5-.2 4.3-1.2 1.2-2.9.5-4.2 0a143 143 0 0 0-54-15c-13.4-.9-28.2-1-41 3.8-3 1-5.6 3-8.5 3.8-1.4.3-2.5-1-3-2.2a18 18 0 0 1 .3-14.8 23 23 0 0 1 13.3-10.7A72.5 72.5 0 0 1 531 354ZM414 408c8.2 2.4 14.6 10.9 13.6 19.5-1.9.6-3.6 1-5.6.7a108 108 0 0 0-42.8 5.9c-14 4.7-28.5 11.6-39.4 21.8-1.4 1.3-4.3 3-5.6.7-1.7-2.3 0-4 1.4-6a128 128 0 0 1 49-39c8.8-3.6 20-6.5 29.4-3.5Z" fill="#000"/></g><g transform="translate(-161 -83)"><path d="M496 576.3c3-.1 6.1-.1 9.2.3l1.2 2.4-1.2 2.5c-7.7.8-15.5 0-23.2.6l-84 .6c-1.7 0-4.6-.6-4.4-2.7-.5-1.7 1.8-3.3 3.3-3.2l99-.5Z" fill="#000"/></g><g transform="translate(-161 -83)"></g><g transform="translate(-161 -83)"></g><g transform="translate(-161 -83)"><g fill="#000"><path d="M558 248c37.7 5 74 19.9 104.4 42.7 4 3.3 8.3 6.2 12.2 9.7A223.6 223.6 0 0 1 749.7 438c1 6.7 2 13.3 1.5 20.2-4.1 2.9-8.2 1.6-13 2.5-5.8.7-10.8 3.1-16.2 5-2.8.1-2.7-2-3.6-4 7.5-5.3 18.2-7 27.3-7.8a217.8 217.8 0 0 0-73.1-147.4c-6-6.1-13-10.2-19.7-15.4-32.7-23-72-36.5-111.9-38.9-12.8-.2-26.1-.6-38.8 1.2a218.3 218.3 0 0 0-143 78.6l-4-1.6c.6-1.9.7-3.6 2-5.2A223.6 223.6 0 0 1 504 247.3l12.5-1c14-1 27.7 0 41.5 1.7Z"/><path opacity=".1" d="M541 252.2c40 2.4 79.2 16 112 39 6.6 5 13.7 9.2 19.5 15.3A217.8 217.8 0 0 1 745.7 454c-9 .9-19.8 2.5-27.3 7.9-3 2.2-6.2 4.5-9.8 5.8-1.5.7-3.3-1.2-3.2-2.7.3-3.5 1.5-6.9 2-10.4 2.2-13.9.6-28.4-4.6-41.4-5.5.4-10.7.7-16-1-9.8-2.9-17.5-9.2-24.4-16.5-8.5-9-15.5-19.8-21.2-30.8-9.7-18.7-16.4-39-20.8-59.6a180 180 0 0 1-35 12.4c-38 10.1-76.3 15.5-115.4 18.8-15 1-30 2-45 2-13.7 0-27.4-.1-41-1.7-8.5-.6-16.5-2.9-24.8-4.7a217.9 217.9 0 0 1 143-78.6c12.7-1.8 26-1.4 38.8-1.2Z"/></g></g><g transform="translate(-161 -83)"></g></g></svg>