<svg xmlns="http://www.w3.org/2000/svg" viewBox="0 0 762 762" fill="none" shape-rendering="auto"><metadata xmlns:rdf="http://www.w3.org/1999/02/22-rdf-syntax-ns#" xmlns:xsi="http://www.w3.org/2001/XMLSchema-instance" xmlns:dc="http://purl.org/dc/elements/1.1/" xmlns:dcterms="http://purl.org/dc/terms/"><rdf:RDF><rdf:Description><dc:title>Adventurer</dc:title><dc:creator>Lisa Wischofsky</dc:creator><dc:source xsi:type="dcterms:URI">https://www.figma.com/community/file/1184595184137881796</dc:source><dcterms:license xsi:type="dcterms:URI">https://creativecommons.org/licenses/by/4.0/</dcterms:license><dc:rights>Remix of „Adventurer” (https://www.figma.com/community/file/1184595184137881796) by „Lisa Wischofsky”, licensed under „CC BY 4.0” (https://creativecommons.org/licenses/by/4.0/)</dc:rights></rdf:Description></rdf:RDF></metadata><mask id="viewboxMask"><rect width="762" height="762" rx="0" ry="0" x="0" y="0" fill="#fff" /></mask><g mask="url(#viewboxMask)"><path d="M396 164.8a224.8 224.8 0 0 1 104.8 42.4c6.2 4.9 12.5 9.4 18 15a225.4 225.4 0 0 1 71.8 149 58.5 58.5 0 0 1 50.9 42.2 71 71 0 0 1-27.6 76.5c-11 7.7-24.5 12-38 11.7-5 0-10-1.6-15-1.8-1.9 2.2-3.3 4.9-4.8 7.3A223.3 223.3 0 0 1 389 609.8c-11 .7-21.9 2-33 .7a223.7 223.7 0 0 1-178.8-342.3A223.4 223.4 0 0 1 352 163.5c14.6-1.4 29.4-.3 44 1.3Z" fill="#000"/><path fill-rule="evenodd" clip-rule="evenodd" d="M498.8 213.2A216 216 0 0 0 363 169c-13-.2-26.2 1.6-39 4a218 218 0 0 0-113.6 365.5 218.5 218.5 0 0 0 260.4 40.2c35-18.8 64.2-47.3 84.4-81.5l-3-1.6c-2.8-1.4-5.7-3-8-5-2.2-2-.3-5.8 2.7-4.7 1.5.7 3 1.6 4.4 2.4a55 55 0 0 0 59.6-3.6 64.5 64.5 0 0 0 25-69.8 53.1 53.1 0 0 0-24-31 52.6 52.6 0 0 0-47-2.8c-1.6.8-3.4 1.5-5 1.3-2.5-.2-2.8-4.2-.6-5.2 8-4 16.5-5.6 25.4-6.4a217 217 0 0 0-72-146.4c-4.4-4-8.7-8.1-13.9-11.3Zm107.6 196.2c2-1.2 1.3-5.1-1.4-5-2 0-4.2.8-6.2 1.6l-1.4.4a95.1 95.1 0 0 0-25.5 12.4c-2.2 2-2.2 4.4.1 6.2a92 92 0 0 0 5.2 2.8 36 36 0 0 1 13 9.2c-.2 1.9-2 3.4-3.4 4.5l-.2.2c-3.9 3-8.8 5-13.6 7-2.5 1-4.9 2-7.1 3.1-1.7.8-2.6 2.2-1.6 3.9 1 2 3.2 1.1 5 .5l.6-.2 5.4-2.3c5.4-2.3 11-4.5 15.4-8 2.7-2.1 5.1-5.1 5.4-8.7-.5-3.4-2.7-5.7-5.3-7.8a83 83 0 0 0-11.6-7.2l-1.1-.6c5.4-3 10.8-5.6 16.6-7.7l5-1.7a52 52 0 0 0 6.7-2.6Z" fill="#9e5622"/><g transform="translate(-161 -83)"><path d="M559 444.5c11.4-.7 22.5 0 33.2 4.3a45.7 45.7 0 0 1 26.2 23.8c1.4 3.3 3.1 7.5 2.2 11.1-3 3.2-8.5 1-12.5 1-12.7-.6-25.5-.4-38 .6-14 1-28.5 1.7-42 5.3a188 188 0 0 0-25.2 7.4c-3.7 1.2-6.8 3-11 2.2 1.4-16.8 13-31.4 26.4-41a87.3 87.3 0 0 1 40.7-14.7Z" fill="#000"/><path d="M573 450.2a54 54 0 0 1 31.9 13c4.9 4.5 8.3 10.3 10.1 16.7-16.7-2.2-34.3-.9-51 0-7.7 1-15.4 1-23 2.3 1.2-9.2 2.2-18.4 1-27.7 10-3.6 20.3-5.5 31-4.3Z" fill="#fff"/><path d="M369.2 468.7a79.8 79.8 0 0 1 50.9 8.2c8.7 4.8 16.9 12 20.6 21.5.7 2 1.6 4.5-.7 6-2.7 0-5.4-.7-8-1.1-9.4-1.8-19.4-2.1-29-2.6-10.7-.4-21.3.5-32 .6-12.5.9-24.8 3-37 5-2.5.6-3.2-2.4-3.2-4.2.2-12.4 9.1-22.3 19.8-27.5 6-2.5 12.2-4.6 18.6-6Z" fill="#000"/><path d="M516.9 467.3c-.6 7-.6 13.5 0 20.4a278 278 0 0 0-18.1 6.1 58 58 0 0 1 18-26.5ZM374.6 473.4c9.9-.6 19.7 0 29.2 2.9a50.8 50.8 0 0 1 30.6 21.5c-20.2-3.5-40-2.6-60.3-2.4.8-7.4.6-14.7.5-22ZM350.5 480.6c-.3 5.8-.3 11.6 0 17.5-4.7.3-9.4.7-14 1.7 1.6-7 5.1-12.1 10.6-16.6l3.4-2.6Z" fill="#fff"/></g><g transform="translate(-161 -83)"><path d="M456 380.4c2.3-.1 2.9 1.7 2.7 3.6-.5 4.7-.8 9.8-2.4 14.2-1.3.4-2.6.6-4 .9-1.1-4.8 0-10.3.7-15.1.4-1.7.8-3.9 3-3.6ZM476.8 386.6c0 3.3-.4 6.4-.7 9.6 41.7.5 83.3.4 125 .8 2.2 0 4 .8 6 1.6-.7 1.5-.3 3.8-2.3 4-8 1.4-16.6.6-24.8 1-17.3.6-34.7 1-52 1.5-17 .2-34 1.2-51 1.4-3.4.4-6.1-2.7-7.3-5.5 0-4.4 1-9.1 2-13.5 1.4-2.4 3-1.6 5-.9ZM439.8 392.2c0 4.9 0 10.8-2.2 15.2-3.3 1.5-7.2 1.8-10.6 2.5l-77 14c-4.2.8-8.7 2.2-13 2.1-2.6-.5-3.3-3.7-.9-5 3.2-1.4 7-1.7 10.4-2.6l87.2-20.3 1.3-5.7c1.6-.2 3.2-.2 4.8-.2Z" fill="#000"/></g><g transform="translate(-161 -83)"><path d="M550 573.5c1.5 0 3.5-.3 4.6.9 1.8 1.5.8 4.5-1.6 4.7-5.3.8-10.7.6-16 1.3l-14.6 2c3 6.4 5 13.3 6 20.4 1.2 9.5.6 18.9-4.4 27.2a28 28 0 0 1-19 13.2 46.5 46.5 0 0 1-27-4.2 87.8 87.8 0 0 1-32.6-27.3 118 118 0 0 0-18.5 16.2c-1.5 1.6-3.5 4-5.7 1.9-1.9-1.7-.3-4 1-5.5a129 129 0 0 1 34.7-26.4 225 225 0 0 1 93.1-24.4Z" fill="#000"/><path d="M516.9 583.4c1.1 4 2.8 7.7 4 11.6 2 7 2.5 14.3 1.7 21.5a24.8 24.8 0 0 1-11 18c-7.5 4.5-16.7 4-24.7 1.5-15-4.8-27-15.2-36.5-27.5 9.3-5.9 19-10.7 29.3-14.6 1.7 2.4 3.3 5.1 5.4 7.1 1.4 1.5 4.5.1 4.1-2-.4-2.4-2.8-4.4-3.8-6.6-.1-.4.1-.7.7-.9 10-3.5 20.4-6 30.8-8.1Z" fill="#EA869E"/></g><g transform="translate(-161 -83)"></g><g transform="translate(-161 -83)"></g><g transform="translate(-161 -83)"><path d="M577 186c12.6.5 25 2.9 36.7 7.3 19.3 7.5 37 19.8 51.1 34.9 10 10.3 18.5 22.2 28.2 32.8a98 98 0 0 0 18 15c9.3 6 20.4 8.5 30.9 12 11.4 3.5 22.5 8 32.5 14.6 16 10.6 28 27.7 34 45.9a80.7 80.7 0 0 1 3.3 42.2c-.5 2-4 2.4-4.9.4-1.5-3.1-2.5-6.5-4.3-9.6a99 99 0 0 0-19.1-23.6 47 47 0 0 1 6.3 40.6c-2.2 7-6.9 12.2-11.8 17.5 1 5 2.4 9.9 2.8 15a39 39 0 0 1-4 21.6c-1.9 3.6-3.9 8.2-7.2 10.8-2.4 1-5.6-1.4-8-2a31.3 31.3 0 0 0-13.5-1.6c-1 1.2-1.6 2.6-2.3 3.9-6.3 12.6-14 24.5-22 36a136 136 0 0 1-30 31c-3.4 2.2-8.1 5-12.1 2.7-3.6-2.5-3.4-8-3-12 2.1-16.2 1.1-33.1 1.3-49.7a81.8 81.8 0 0 1-39.2-10.4 90.3 90.3 0 0 1-47.1-75.4 83.7 83.7 0 0 1-35.8 15.7c-3 .5-7.2 1.4-10-.4-1.4-2.2-.6-3.6 1-5.3a88.5 88.5 0 0 0 26.1-42 42.6 42.6 0 0 0-7-37.8 45 45 0 0 0-25.7-14.7 75.2 75.2 0 0 0-33.2.8c-1.8.3-3.3 1-5 0-2-2.1-1.3-4.4-1.2-7A108.9 108.9 0 0 0 473 310c-1.7 1.1-3 2-5 1.2-3-1.3-5.3-4.2-8.1-6a85 85 0 0 0-32.8-12c3 2.7 6.5 5.4 9.1 8.6 1.3 1.7 1.7 3.9 0 5.5-1.7 1-4.2.7-6.2.8-12.1-.1-25 .4-36.5 4.5-2.9 2.1-4.7 6.3-6.6 9.3a141.4 141.4 0 0 0-18.8 74.1c-.1 1.5 0 3-.9 4.2-2.4 1.4-4.1 0-6.2-1.1-6.5-4-12.8-8.9-17.7-14.8a45.6 45.6 0 0 1-24.5 22.6c-3 8.2-4 17.4-5.9 26.1-1 4.7-1.2 9.6-2.3 14.3-.6 2.4-3.5 2.9-4.9.8-8.8-11.7-10.6-25.5-12.6-39.6-4.5-1.1-8.7-2.5-12.4-5.2-2.3-1.7-5.2-4.2-5.3-7.3-.2-1.6 1.9-2.7 3-3.7 3.7-2.7 7-5.8 10.4-8.9-9-3-16.3-9.6-19.8-18.5a49.3 49.3 0 0 1 1.7-36.2A87.2 87.2 0 0 1 308 287a71.2 71.2 0 0 1 30-9.3c2.5-12.2 6.5-24 12.7-35a93.2 93.2 0 0 1 95.3-46.5 115 115 0 0 1 53.2 23.2c6.4-5.8 13-11.3 20.3-15.8A108 108 0 0 1 577 186Z" fill="#000"/><g fill="#ab2a18"><path d="M574 191.8a107 107 0 0 1 40.2 8 135 135 0 0 1 45.5 31.5c11.2 11 20.2 24.6 31.2 35.8 8.1 8 17.1 15.2 27.9 19.3 14.8 5.8 30.2 8.7 44.4 16.4a77.3 77.3 0 0 1 26.1 21.8 89.1 89.1 0 0 1 18.1 53.5c-9-14.4-21.7-28.9-37.4-36.1-2.3-1.2-5 .4-4.4 3 1.2 2.4 3.4 4.3 5.1 6.2 4.4 4.7 8.8 9.8 11.5 15.6 4.6 9.6 5.1 21 1.6 31-1.8 5.2-5.3 9-9 13-1.3 1.6-3.2 2.8-2.4 5.1 2 8.8 4 16.9 2.2 26-1.5 5.6-4.2 11-7.4 15.8-5.4-2-10.6-3.2-16.4-3.6.3-1.7 1-3.6.4-5.1-1-1.1-2.5-1.8-3.9-.7-1 1-1.7 2.5-2.3 3.8-7.6 16.3-17 31.7-27.6 46.4-5.2 6.9-11 13.6-17.4 19.5a56 56 0 0 1-15.3 10.9c-1-4.7 0-9 .2-13.7.6-8.7 1-17.5.6-26.2-.4-5.9-.3-11.7-.3-17.6a60.6 60.6 0 0 0 39.2-18.2c1.7-2 1.1-4.4-1.5-5a38.3 38.3 0 0 1-14-6.6c8.5.3 16.9-.5 24.8-3.8A45 45 0 0 0 758 416a40 40 0 0 0 3-24c-.4-2.8-4.1-4.2-5.2-1 .6 7.7 1.2 15-2.6 22.2-8 16.7-28.6 24.7-46.2 22.3-2.2-.3-5.2-2-7.2-.8-.5.7-.9 1.4-1 2.3 3.6 8 10.6 12 18.3 15.3a58.1 58.1 0 0 1-47 13 85.5 85.5 0 0 1-65.6-53.8c-3.9-9.8-5.3-20-5.4-30.5 0-2.8-3.2-4.2-5.3-2.1a76.3 76.3 0 0 1-36.7 17 101 101 0 0 0 20.3-30.7 62 62 0 0 0 4.4-31.2c-1.3-9.3-5.5-18-12.2-24.6a53.7 53.7 0 0 0-33.6-14.8 84.3 84.3 0 0 0-26.9 1.7c.5-2.3 1.9-4.4.2-6.5-1.4-1.9-4.2-.8-6.1-.5a111 111 0 0 0-33.6 16.5C457 293.5 437 288.3 420 286.3c-17.2-2-35.1-.7-51.8 4a80.7 80.7 0 0 0-14.3 5.5c-2.2 1.1-2.1 4.4.2 5.2 1.2.7 2.9-.4 4-.8 15.7-7.1 34-9.3 51-9 3.1.2 7 0 9.7 2.1 3.8 2.8 7.2 6.2 10.8 9.3a105 105 0 0 0-37 4.2c-3.7 1.6-6 5.4-8.1 8.7-5 8.2-9.8 17-13.1 26-6.3 16.5-9 34.4-9.2 52-7-4.6-14-10.2-18-17.7-1.6-2.7-2.5-5.6-3.6-8.5-1-2.1-4.5-2-4.9.7-.4 3.7 2.2 8 4 11.1-3 8-8.6 14.4-15.7 19-7 4.3-14.9 5.5-23 5.2-7.1.1-13.8-1.9-19.3-6.5 4.5-4.1 9.6-7.9 13.7-12.4a3 3 0 0 0-.2-4.8c-2-1-4.3-1.6-6.4-2.4a25.7 25.7 0 0 1-14.1-13.7 38 38 0 0 1-1.7-22.7 73.8 73.8 0 0 1 22-36.9 69.8 69.8 0 0 1 43-20.1c1.6-.2 3.1-.3 4.5-1.3 1.4-2.2 1.6-5.4 2.2-8 3-13.1 8.3-25.8 16-36.7a86.7 86.7 0 0 1 84.7-35.9 109 109 0 0 1 49.4 21.4c-1.4 1.7-5.6 3.9-4.4 6.5.3 1.5 2.4 2 3.5 1.1 5.6-3.8 10.3-9 15.7-13.3 18.2-14.8 40.7-25 64.4-25.8Z"/><path d="M298.6 409.2c4.7 0 9.4 0 14-1-2.6 9.9-4.2 20-6.3 30a86.2 86.2 0 0 1-7.7-29Z"/></g></g><g transform="translate(-161 -83)"></g></g></svg>