<svg xmlns="http://www.w3.org/2000/svg" viewBox="0 0 762 762" fill="none" shape-rendering="auto"><metadata xmlns:rdf="http://www.w3.org/1999/02/22-rdf-syntax-ns#" xmlns:xsi="http://www.w3.org/2001/XMLSchema-instance" xmlns:dc="http://purl.org/dc/elements/1.1/" xmlns:dcterms="http://purl.org/dc/terms/"><rdf:RDF><rdf:Description><dc:title>Adventurer</dc:title><dc:creator>Lisa Wischofsky</dc:creator><dc:source xsi:type="dcterms:URI">https://www.figma.com/community/file/1184595184137881796</dc:source><dcterms:license xsi:type="dcterms:URI">https://creativecommons.org/licenses/by/4.0/</dcterms:license><dc:rights>Remix of „Adventurer” (https://www.figma.com/community/file/1184595184137881796) by „Lisa Wischofsky”, licensed under „CC BY 4.0” (https://creativecommons.org/licenses/by/4.0/)</dc:rights></rdf:Description></rdf:RDF></metadata><mask id="viewboxMask"><rect width="762" height="762" rx="0" ry="0" x="0" y="0" fill="#fff" /></mask><g mask="url(#viewboxMask)"><path d="M396 164.8a224.8 224.8 0 0 1 104.8 42.4c6.2 4.9 12.5 9.4 18 15a225.4 225.4 0 0 1 71.8 149 58.5 58.5 0 0 1 50.9 42.2 71 71 0 0 1-27.6 76.5c-11 7.7-24.5 12-38 11.7-5 0-10-1.6-15-1.8-1.9 2.2-3.3 4.9-4.8 7.3A223.3 223.3 0 0 1 389 609.8c-11 .7-21.9 2-33 .7a223.7 223.7 0 0 1-178.8-342.3A223.4 223.4 0 0 1 352 163.5c14.6-1.4 29.4-.3 44 1.3Z" fill="#000"/><path fill-rule="evenodd" clip-rule="evenodd" d="M498.8 213.2A216 216 0 0 0 363 169c-13-.2-26.2 1.6-39 4a218 218 0 0 0-113.6 365.5 218.5 218.5 0 0 0 260.4 40.2c35-18.8 64.2-47.3 84.4-81.5l-3-1.6c-2.8-1.4-5.7-3-8-5-2.2-2-.3-5.8 2.7-4.7 1.5.7 3 1.6 4.4 2.4a55 55 0 0 0 59.6-3.6 64.5 64.5 0 0 0 25-69.8 53.1 53.1 0 0 0-24-31 52.6 52.6 0 0 0-47-2.8c-1.6.8-3.4 1.5-5 1.3-2.5-.2-2.8-4.2-.6-5.2 8-4 16.5-5.6 25.4-6.4a217 217 0 0 0-72-146.4c-4.4-4-8.7-8.1-13.9-11.3Zm107.6 196.2c2-1.2 1.3-5.1-1.4-5-2 0-4.2.8-6.2 1.6l-1.4.4a95.1 95.1 0 0 0-25.5 12.4c-2.2 2-2.2 4.4.1 6.2a92 92 0 0 0 5.2 2.8 36 36 0 0 1 13 9.2c-.2 1.9-2 3.4-3.4 4.5l-.2.2c-3.9 3-8.8 5-13.6 7-2.5 1-4.9 2-7.1 3.1-1.7.8-2.6 2.2-1.6 3.9 1 2 3.2 1.1 5 .5l.6-.2 5.4-2.3c5.4-2.3 11-4.5 15.4-8 2.7-2.1 5.1-5.1 5.4-8.7-.5-3.4-2.7-5.7-5.3-7.8a83 83 0 0 0-11.6-7.2l-1.1-.6c5.4-3 10.8-5.6 16.6-7.7l5-1.7a52 52 0 0 0 6.7-2.6Z" fill="#ecad80"/><g transform="translate(-161 -83)"><path d="M574.5 426.5a66.4 66.4 0 0 1 34 22.7c7.5-5.1 14.7-10.7 22.4-15.7l3 1.3c-.3 2.1-.2 3.6-2.2 4.9l-20 14.2a64.5 64.5 0 0 1 9.8 44c-.5 2.7-3 3.4-5.5 3.6-19.7 1-39.4 3-59 5.4-11 1.5-22.2 2-33.2 3.6l-13.6 1.8c-5 .7-9.5 1.7-14.5.3a65.2 65.2 0 0 1 78.8-86.1Z" fill="#000"/><path d="M565.5 430.4a59.8 59.8 0 0 1 50.7 65.2c-4.7.4-9.5 1-14.2 1.2-18 1.2-36 3.3-53.8 5.4 1-3 2.2-6 2.5-9.2.8-9.3-4.1-18.8-12.3-23.4a25 25 0 0 0-17.5-2.7 24.5 24.5 0 0 0-19.5 25.1 25 25 0 0 0 6.3 15.8l-7.3.7a59.3 59.3 0 0 1 35.4-74.9 60.5 60.5 0 0 1 29.7-3.2Z" fill="#fff"/><path d="M416.5 455.4a55 55 0 0 1 23.3 61.7c-5.4 1-10.4.5-15.8.5-24-.2-48-.1-72 1.5-5.9-.1-12.6 1.6-17.8-1.2-1-4.6-2.1-9.2-2.3-13.9-.3-10 2.2-20 6.8-29-6-3.9-12.3-7.5-18.2-11.6-1.9-1.4-1.7-2.7-.8-4.7 2.7-1 4.5.5 6.8 1.8l15.2 9.8a55.3 55.3 0 0 1 74.8-14.9Z" fill="#000"/><path d="M400.8 454.5a49.4 49.4 0 0 1 34.3 57.9l-5.6.1a26 26 0 0 0 2.9-14.5c-1-8.6-7.3-16.1-15.6-18.6a22 22 0 0 0-28.5 19.6c-.4 4.7 1 9 2.8 13.2-13.4 0-26.8.6-40 1.6-3.8.2-8 .7-11.6-.3-1.6-3-1.6-7.1-1.8-10.5a49.1 49.1 0 0 1 63.1-48.5Z" fill="#fff"/></g><g transform="translate(-161 -83)"><path d="M607 397.6c1.5-.4 3.2.6 4.7 1 0 1.2-.1 2.4-.4 3.6-1.6 1.5-3.6 2.6-5.4 3.8a803.6 803.6 0 0 1-70.4 40.6A289.9 289.9 0 0 1 500 462a50 50 0 0 1-21 3.5c-3.3-.4-6.2-3-6.2-6.5 0-4.2 3-8.6 5-12.1 1.3-2.7 4.5-3 7-4.1l111.7-41.5c3.5-1.2 7-2.8 10.5-3.7ZM339 432.6l90 18c2.3.4 4.6.1 6.9.5 2.4 2.3 3.6 6.2 4.5 9.4 1.2 4-.1 8.8-4 11-4 2.6-9.8 2.1-14.4 1.9-8.8-1-17.4-3.8-25.7-6.8a418 418 0 0 1-57-27c-1.6-.9-3.6-1.9-4.8-3.5-.3-2.9 1.9-4.1 4.5-3.5Z" fill="#000"/></g><g transform="translate(-161 -83)"><path d="M504 568.7c3.7-1.3 5.6 4 2.2 5.5-5.7 2.8-10.8 6.6-13 12.8-2.2 6.4.5 13.1 4.8 18 3 3.4 6.6 5.4 10.4 7.7 2 1 1.3 2.8 1.1 4.6l-2.5 1A37 37 0 0 1 491 606c-2.3-3.2-3.3-6.7-4.6-10.3-25.1 2-50.4 2.8-75.5 4.7-1.8-.3-2.4-2-3.5-3.3 1.1-1.2 1.7-2.7 3.5-2.8 17.4-.9 34.6-2 52-3 7.8-.7 15.7-.5 23.5-1.5a27.9 27.9 0 0 1 17.5-21Z" fill="#000"/></g><g transform="translate(-161 -83)"></g><g transform="translate(-161 -83)"><path fill-rule="evenodd" clip-rule="evenodd" d="M589 446c12.8.8 25.7 1.9 37.4 7.6 1.1.5 2.2 1.2 3.3 1.9 1.4.9 2.8 1.8 4.3 2.3 2.3.4 4.7.4 7 .5 2.7.1 5.4.2 8 .7 2.1.8 2.3 2.8 2.4 4.8v1c0 2.2 0 4.2-2.4 5.4-2.2.2-4.4.2-6.6.2h-3.2a92.2 92.2 0 0 1-11.5 52.3 82.3 82.3 0 0 1-43.9 37.2 78.7 78.7 0 0 1-77.4-14.3 88.7 88.7 0 0 1-28.7-44.5c-1-3-1.5-6-2-9-.6-3.2-1.2-6.4-2.3-9.5-2-5.5-10.5-8.8-14.5-3.7-3.3 3.7-3.2 8-3.2 12.6v3.5a77.3 77.3 0 0 1-41.3 65.4 65 65 0 0 1-46.2 5.3 62 62 0 0 1-30.7-19.2 70.8 70.8 0 0 1-16.8-45.2l-1.5-.2c-1.4-.2-2.7-.3-3.4-2v-.4c-.3-2.1-.9-5.5 1.4-6.5 1-.5 2-1 3-1.3 2.2-1 4.4-1.8 6.2-3.5a88.9 88.9 0 0 1 37.6-17.3 152 152 0 0 1 69-1c5.8 1.5 12 1.7 17.7-.4 7.1-2.3 14.9-3.5 22.3-2.5 5.8.6 11.9.4 17.4-1.9 12.1-4.6 24-9.1 36.6-12.3 20.3-5.1 41-7.2 62-6Zm-25 13c17.6-1 36-.8 53.3 3.7a19 19 0 0 1 14.2 15.5c1.3 7.9.3 15.5-1.3 23.3a80.6 80.6 0 0 1-24.7 39 73 73 0 0 1-81.6 9.6 80 80 0 0 1-33.2-32.9 60.6 60.6 0 0 1-6.4-35.5 98 98 0 0 1 20.2-10.3A214.9 214.9 0 0 1 564 459Zm-134.8 19.8c-11.4-2.2-23-2.7-34.7-2-16 1.2-31.3 3.7-46.4 9.4-5.2 2-10.6 4.5-15 8-4.1 2.8-5.5 9.1-5.7 13.8.3 8.9 3.6 17.9 8 25.5a56.4 56.4 0 0 0 66.7 25.6 68 68 0 0 0 46.6-62.1 47 47 0 0 0-1.4-10c-.3-1.6-1.8-2.5-3.1-3.3l-.6-.3a57.8 57.8 0 0 0-14.4-4.6Z" fill="#000"/></g><g transform="translate(-161 -83)"><path d="M514 213c19.8-.4 40.2.2 59.8 3.4C590 219.3 607 223 622 230c15.2 7 28.6 18 38.6 31.4a24 24 0 0 1 4.4 12.2 137 137 0 0 1 54.7 18.7A127 127 0 0 1 772 353a126 126 0 0 1 9 43c0 22-5.7 44.1-17 63.2a4 4 0 0 1-4 2c-3.7-.1-7.3-.8-11-1.2a71.2 71.2 0 0 1-20.2 36 114.5 114.5 0 0 1-46.7 28c-2.1.6-5.3 1.7-6.6-.7-2-3 .3-8 .7-11.3A173 173 0 0 0 635 367a125.2 125.2 0 0 0-68-40c-1.8-.5-3.9-.7-4-3-.2-5.9-3-10.7-7.6-14.3-7-5.2-15.9-7.6-24.4-5.6-17 3.4-33 13.6-45.9 25a170 170 0 0 0-37.7 52.3c-11.3 22.4-20.8 46-31.1 68.8A321.2 321.2 0 0 1 383 509c-11 15-23.8 29-38.5 40.5a170.8 170.8 0 0 1-43 24.2A110 110 0 0 1 271 581c-2.5.1-4.6-2.5-6.2-4.1 2.3-5 6.8-5.2 10.7-8.5 6.1-5 10.2-13 12-20.6 2.2-9.6 2.9-19 3.3-28.8.3-13-2.6-24.6-4.8-37.2-2.5-14.5-4.8-29-6.2-43.8-1.8-16.1-.4-33 2.5-49 4.3-24 13.6-46 25.5-67.2a173.5 173.5 0 0 1 35.4-42.5c32-28.3 70.6-48.8 112-59 19.4-4.8 38.8-6.5 58.8-7.4ZM719 576c2.9-.5 6 1.7 9 2 2.8.6 6 .3 8.8 1.1 1.6 1 1.2 3.2 1.4 4.9-.1 5.8-.3 11.3 1 17 .5 2.9 1.7 6 1.5 8.8-.1 2.3-3 2.7-4.7 2.3-8-1.2-16-5.3-23.2-8.9-2.7-1.4-7-4.7-6-8.2 2.1-4 5.9-7 7.9-11.3 1.4-2.4 2.2-5.9 4.4-7.7Z" fill="#000"/><path d="M545.9 219.3c10.4.9 20.8 1.7 31 3.7 15 3 30.9 6.7 44.6 13.5a98.5 98.5 0 0 1 33.8 27.2c2 2.8 4.1 5.7 3.8 9.3.1 2.1-.8 4.3 1.2 5.7 2 .8 4.4.8 6.5 1.1 19.9 2.8 39.2 10.2 55.8 21.5a119.9 119.9 0 0 1 46.7 61.4c10.1 30.7 6.3 65-10 92.9-3-.5-6.2-.8-9.3-1-.6-1.3-1-4-3-3.9-2.1-.3-3.2 1.6-3.3 3.5-.6 11.2-6 21.9-13 30.6a105.6 105.6 0 0 1-49.4 33.2c5.7-26.3 4.9-53.7-1.9-79.8a173 173 0 0 0-55-89.6 127.9 127.9 0 0 0-55.8-27.7c-2-8.2-6.5-14.5-14-18.6a38.8 38.8 0 0 0-31.1-2.6 114.3 114.3 0 0 0-42.6 25.2 148.5 148.5 0 0 0-28.7 35.3C441 379 431.8 400 423 420c-11.4 26.4-22 51.7-38 75.8-16.7 25-38.6 48.5-65.3 62.8-12.8 6.9-26.9 13-41.2 15.4a48.7 48.7 0 0 0 16.5-33c2-14 2.8-29.1.2-43.2-2.2-12.2-4.5-24.5-6.4-36.8-1.8-13.2-3.8-25.7-3.6-39 0-11.2 1.3-22.2 3.4-33.2 4.2-22.5 13-43.3 24-63.2a172.5 172.5 0 0 1 40.4-46.7A253.1 253.1 0 0 1 496 220c16.4-1.7 33.4-1.4 49.9-.8ZM721.9 582.5c3.5.6 7 1.5 10.6 1.8-.5 7.3.5 14.4 1.6 21.5a98 98 0 0 1-21.4-9.8 72 72 0 0 0 9.2-13.5Z" fill="#ab2a18"/></g><g transform="translate(-161 -83)"></g></g></svg>