<svg xmlns="http://www.w3.org/2000/svg" viewBox="0 0 762 762" fill="none" shape-rendering="auto"><metadata xmlns:rdf="http://www.w3.org/1999/02/22-rdf-syntax-ns#" xmlns:xsi="http://www.w3.org/2001/XMLSchema-instance" xmlns:dc="http://purl.org/dc/elements/1.1/" xmlns:dcterms="http://purl.org/dc/terms/"><rdf:RDF><rdf:Description><dc:title>Adventurer</dc:title><dc:creator>Lisa Wischofsky</dc:creator><dc:source xsi:type="dcterms:URI">https://www.figma.com/community/file/1184595184137881796</dc:source><dcterms:license xsi:type="dcterms:URI">https://creativecommons.org/licenses/by/4.0/</dcterms:license><dc:rights>Remix of „Adventurer” (https://www.figma.com/community/file/1184595184137881796) by „Lisa Wischofsky”, licensed under „CC BY 4.0” (https://creativecommons.org/licenses/by/4.0/)</dc:rights></rdf:Description></rdf:RDF></metadata><mask id="viewboxMask"><rect width="762" height="762" rx="0" ry="0" x="0" y="0" fill="#fff" /></mask><g mask="url(#viewboxMask)"><path d="M396 164.8a224.8 224.8 0 0 1 104.8 42.4c6.2 4.9 12.5 9.4 18 15a225.4 225.4 0 0 1 71.8 149 58.5 58.5 0 0 1 50.9 42.2 71 71 0 0 1-27.6 76.5c-11 7.7-24.5 12-38 11.7-5 0-10-1.6-15-1.8-1.9 2.2-3.3 4.9-4.8 7.3A223.3 223.3 0 0 1 389 609.8c-11 .7-21.9 2-33 .7a223.7 223.7 0 0 1-178.8-342.3A223.4 223.4 0 0 1 352 163.5c14.6-1.4 29.4-.3 44 1.3Z" fill="#000"/><path fill-rule="evenodd" clip-rule="evenodd" d="M498.8 213.2A216 216 0 0 0 363 169c-13-.2-26.2 1.6-39 4a218 218 0 0 0-113.6 365.5 218.5 218.5 0 0 0 260.4 40.2c35-18.8 64.2-47.3 84.4-81.5l-3-1.6c-2.8-1.4-5.7-3-8-5-2.2-2-.3-5.8 2.7-4.7 1.5.7 3 1.6 4.4 2.4a55 55 0 0 0 59.6-3.6 64.5 64.5 0 0 0 25-69.8 53.1 53.1 0 0 0-24-31 52.6 52.6 0 0 0-47-2.8c-1.6.8-3.4 1.5-5 1.3-2.5-.2-2.8-4.2-.6-5.2 8-4 16.5-5.6 25.4-6.4a217 217 0 0 0-72-146.4c-4.4-4-8.7-8.1-13.9-11.3Zm107.6 196.2c2-1.2 1.3-5.1-1.4-5-2 0-4.2.8-6.2 1.6l-1.4.4a95.1 95.1 0 0 0-25.5 12.4c-2.2 2-2.2 4.4.1 6.2a92 92 0 0 0 5.2 2.8 36 36 0 0 1 13 9.2c-.2 1.9-2 3.4-3.4 4.5l-.2.2c-3.9 3-8.8 5-13.6 7-2.5 1-4.9 2-7.1 3.1-1.7.8-2.6 2.2-1.6 3.9 1 2 3.2 1.1 5 .5l.6-.2 5.4-2.3c5.4-2.3 11-4.5 15.4-8 2.7-2.1 5.1-5.1 5.4-8.7-.5-3.4-2.7-5.7-5.3-7.8a83 83 0 0 0-11.6-7.2l-1.1-.6c5.4-3 10.8-5.6 16.6-7.7l5-1.7a52 52 0 0 0 6.7-2.6Z" fill="#ecad80"/><g transform="translate(-161 -83)"><path d="M540.5 447.7a103 103 0 0 1 57 7.8 46 46 0 0 1 21.2 19c3.9 7.3 3.9 16.7-.2 24-4.2 8-12 14-20 18.2a95.3 95.3 0 0 1-44.5 9.6c-12 0-24-1.8-35.2-6a56 56 0 0 1-23.7-16.3 26.6 26.6 0 0 1-6-22 35.2 35.2 0 0 1 14.5-20.4 82 82 0 0 1 36.9-13.9Z" fill="#000"/><path d="M547 452.7c8.4-.3 17.2-.6 25.5 1a74 74 0 0 1 30.3 11.5c5.5 4 10.4 9.1 12.3 15.8 2 6.8-.2 14.1-4.7 19.4a54.2 54.2 0 0 1-24.6 15.5c-9.9 3.2-20.4 5-30.8 4.8a92.9 92.9 0 0 1-30.2-4.5A54 54 0 0 1 500 501c-4.3-5-7-12.4-4.9-19 1.5-6.5 6.7-12 12-16 11.4-8.2 26-12 39.9-13.3Z" fill="#fff"/><path d="M373.5 460.8c16.3-2.3 34.2-1 49 6.6 7.8 4 15.5 10.4 18 19 2.4 7.2-.1 14.8-4.6 20.5a50.5 50.5 0 0 1-24.6 15.4 89.7 89.7 0 0 1-45.3 1.8c-10-2.3-20-6.5-27.2-14-4.7-4.7-8-11.2-7.4-18 .6-7.3 5-13.7 10.5-18.2a65 65 0 0 1 31.6-13.1Z" fill="#000"/><path d="M371.5 467c15.6-3 33-1.9 47.4 5 6.4 3 13.5 8.2 15.8 15.2 2 5.6.3 11.7-3.3 16.2a43.5 43.5 0 0 1-18.6 12.4c-12.4 4.4-26 5.9-39 3.9-9.3-1.3-19-4.3-26.7-9.8-5.2-4-9.6-9-10-15.9-.1-6.8 4.2-12.5 9.4-16.6a60.4 60.4 0 0 1 25-10.5Z" fill="#fff"/><path d="M592.2 469.2c2.1-1.6 4.7-.3 6 1.7 2.4 4 2.4 9.6 2.8 14.1.2 4.4.5 9.6-1.2 13.8-2 4-7.5 1.3-8.8-1.9a50.3 50.3 0 0 1-1.6-20.3c.4-2.4.6-6 2.8-7.4ZM416.9 476c2.1.6 2.8 3.8 3.3 5.7.8 5 1.3 10.2 1 15.3-.3 2.6-.7 5.7-3 7.2-2.2 1.3-4.4 0-5.4-2-2.1-3.8-2.2-9-2.3-13.2 0-4.4-.1-8.7 2.2-12.6 1.4-.3 2.7-1 4.2-.3Z" fill="#000"/></g><g transform="translate(-161 -83)"><path d="M531 353.9c17 2 34 7.4 48.6 16.5a57 57 0 0 1 18.3 16.9c.9 1.2 1.2 3.5-.2 4.3-1.2 1.2-2.9.5-4.2 0a143 143 0 0 0-54-15c-13.4-.9-28.2-1-41 3.8-3 1-5.6 3-8.5 3.8-1.4.3-2.5-1-3-2.2a18 18 0 0 1 .3-14.8 23 23 0 0 1 13.3-10.7A72.5 72.5 0 0 1 531 354ZM414 408c8.2 2.4 14.6 10.9 13.6 19.5-1.9.6-3.6 1-5.6.7a108 108 0 0 0-42.8 5.9c-14 4.7-28.5 11.6-39.4 21.8-1.4 1.3-4.3 3-5.6.7-1.7-2.3 0-4 1.4-6a128 128 0 0 1 49-39c8.8-3.6 20-6.5 29.4-3.5Z" fill="#000"/></g><g transform="translate(-161 -83)"><path d="M522.8 563c11 1.4 21.9 7 27.2 17a31.4 31.4 0 0 1 3.3 21.2 53.6 53.6 0 0 1-14.5 27.6 77 77 0 0 1-44.8 23 92.7 92.7 0 0 1-42.9-3 77.4 77.4 0 0 1-23.8-13 62.2 62.2 0 0 1-19.5-25.6A33 33 0 0 1 406 593a21 21 0 0 1 12.8-15.3 37 37 0 0 1 21.2-1.8c9 1.2 16.7 5 24.7 9.1a71.6 71.6 0 0 1 58.1-22Z" fill="#000"/><path d="M518 568.5c8.8.4 17.4 3.3 23.7 9.7-3 3.7-6.9 6.3-11 8.5-1.7.9-3.7 1.7-5 3-2.5 3-3.7 8.2-6.7 10.5-3.6-1.2-6.8-3.9-10-5.8a175.4 175.4 0 0 1-44 4.5c-11 .3-22-.6-33-2.4-1.8-.3-4-1-5.8-.4-2.2 1.5-4 3.6-5.8 5.4l-5.5-8.5-2.7-1.2c2.7-6 8.4-9.6 14.8-10.4a54 54 0 0 1 34 8.6c2 1 3.6 2.3 5.8.9 2.8-2.2 5.1-5 8-7.1 12-9.6 27.7-16 43.2-15.2Z" fill="#fff"/><path d="M545.3 583.3a29.2 29.2 0 0 1 2.2 17.7c-2 9.5-7 17.8-13.9 24.6a75.2 75.2 0 0 1-41.6 20.7 88.8 88.8 0 0 1-34-1.7 70.6 70.6 0 0 1-37.6-24 38.8 38.8 0 0 1-9.3-23c2.6 2.7 3.8 6.3 6.3 9 4.2 3.3 7.7-2.1 10.5-4.7a218.6 218.6 0 0 0 80.2-1.2c3.7 1.5 8.4 6 12.7 5 6-2.3 6-11.9 12.3-13.6a42.7 42.7 0 0 0 12.2-8.8Z" fill="#8F2E45"/></g><g transform="translate(-161 -83)"></g><g transform="translate(-161 -83)"></g><g transform="translate(-161 -83)"><path d="M464 199.3c14.7-1 29.4 2.8 42.6 9.1a66.2 66.2 0 0 1 33.3 32.7c1 2.6 1.2 5-.7 7.1-1.5.7-3.5.6-5 1-3 1-5.3 3.4-6.5 6.3-2.8 6.3-3.9 13.4-6.1 20-2.2 7-5.2 13.5-10.2 19A98.5 98.5 0 0 1 462 323a84.4 84.4 0 0 1-45-1c-7.7-2.3-14.1-7.4-18.4-14.1-.8-1.3-.2-3.5 1.6-3.6 4.5-.4 8.8-.5 13-2.4 5.8-2.3 9-7.8 10-13.8 1.1-8.4-.5-15.9-1.4-24.2a95.3 95.3 0 0 1-.4-32.2c1.6-7.5 5.1-14.4 10.7-19.7a49.6 49.6 0 0 1 31.9-12.8Z" fill="#000"/><path d="M462 205.2c13.3-1.4 27.3 2 39.5 7.3 14.3 6.6 27 16 33.6 30.7a17.1 17.1 0 0 0-12.5 10.3c-4.3 9.9-5.4 21.1-11.1 31a62.5 62.5 0 0 1-16.3 16.7 92.4 92.4 0 0 1-60.7 18.5c-9.8-1.2-20-2.6-27.1-10a39 39 0 0 0 10.7-3.6c5.9-3.5 9.7-9.6 10.8-16.3 1.4-11.9-1.1-22.2-2.2-33.8-.8-5.2-.6-10.7-.5-16 .5-8.6 3.3-17.2 9.5-23.3a43 43 0 0 1 26.3-11.5Z" fill="#dba3be"/></g><g transform="translate(-161 -83)"></g></g></svg>