<svg xmlns="http://www.w3.org/2000/svg" viewBox="0 0 762 762" fill="none" shape-rendering="auto"><metadata xmlns:rdf="http://www.w3.org/1999/02/22-rdf-syntax-ns#" xmlns:xsi="http://www.w3.org/2001/XMLSchema-instance" xmlns:dc="http://purl.org/dc/elements/1.1/" xmlns:dcterms="http://purl.org/dc/terms/"><rdf:RDF><rdf:Description><dc:title>Adventurer</dc:title><dc:creator>Lisa Wischofsky</dc:creator><dc:source xsi:type="dcterms:URI">https://www.figma.com/community/file/1184595184137881796</dc:source><dcterms:license xsi:type="dcterms:URI">https://creativecommons.org/licenses/by/4.0/</dcterms:license><dc:rights>Remix of „Adventurer” (https://www.figma.com/community/file/1184595184137881796) by „Lisa Wischofsky”, licensed under „CC BY 4.0” (https://creativecommons.org/licenses/by/4.0/)</dc:rights></rdf:Description></rdf:RDF></metadata><mask id="viewboxMask"><rect width="762" height="762" rx="0" ry="0" x="0" y="0" fill="#fff" /></mask><g mask="url(#viewboxMask)"><path d="M396 164.8a224.8 224.8 0 0 1 104.8 42.4c6.2 4.9 12.5 9.4 18 15a225.4 225.4 0 0 1 71.8 149 58.5 58.5 0 0 1 50.9 42.2 71 71 0 0 1-27.6 76.5c-11 7.7-24.5 12-38 11.7-5 0-10-1.6-15-1.8-1.9 2.2-3.3 4.9-4.8 7.3A223.3 223.3 0 0 1 389 609.8c-11 .7-21.9 2-33 .7a223.7 223.7 0 0 1-178.8-342.3A223.4 223.4 0 0 1 352 163.5c14.6-1.4 29.4-.3 44 1.3Z" fill="#000"/><path fill-rule="evenodd" clip-rule="evenodd" d="M498.8 213.2A216 216 0 0 0 363 169c-13-.2-26.2 1.6-39 4a218 218 0 0 0-113.6 365.5 218.5 218.5 0 0 0 260.4 40.2c35-18.8 64.2-47.3 84.4-81.5l-3-1.6c-2.8-1.4-5.7-3-8-5-2.2-2-.3-5.8 2.7-4.7 1.5.7 3 1.6 4.4 2.4a55 55 0 0 0 59.6-3.6 64.5 64.5 0 0 0 25-69.8 53.1 53.1 0 0 0-24-31 52.6 52.6 0 0 0-47-2.8c-1.6.8-3.4 1.5-5 1.3-2.5-.2-2.8-4.2-.6-5.2 8-4 16.5-5.6 25.4-6.4a217 217 0 0 0-72-146.4c-4.4-4-8.7-8.1-13.9-11.3Zm107.6 196.2c2-1.2 1.3-5.1-1.4-5-2 0-4.2.8-6.2 1.6l-1.4.4a95.1 95.1 0 0 0-25.5 12.4c-2.2 2-2.2 4.4.1 6.2a92 92 0 0 0 5.2 2.8 36 36 0 0 1 13 9.2c-.2 1.9-2 3.4-3.4 4.5l-.2.2c-3.9 3-8.8 5-13.6 7-2.5 1-4.9 2-7.1 3.1-1.7.8-2.6 2.2-1.6 3.9 1 2 3.2 1.1 5 .5l.6-.2 5.4-2.3c5.4-2.3 11-4.5 15.4-8 2.7-2.1 5.1-5.1 5.4-8.7-.5-3.4-2.7-5.7-5.3-7.8a83 83 0 0 0-11.6-7.2l-1.1-.6c5.4-3 10.8-5.6 16.6-7.7l5-1.7a52 52 0 0 0 6.7-2.6Z" fill="#763900"/><g transform="translate(-161 -83)"><path d="M558.2 453.2c11.5-1.6 23.7.2 34 5.5 7.6 4 14.3 10.3 18.1 18a32.5 32.5 0 0 1 2.1 21.8c-2 8-7.2 15.2-13.7 20.2a57.4 57.4 0 0 1-54.2 7.8 43.6 43.6 0 0 1-21.4-16.6 34.2 34.2 0 0 1-5.4-15.9 34.5 34.5 0 0 1 10.3-26c8-8.4 18.9-13 30.2-14.8Z" fill="#000"/><path d="M559.2 459.1c14-2 29.7 1.6 39.8 11.9 6.6 6.5 10.4 17 7.7 26-2 8.2-7.7 14.5-14.6 19.2a52 52 0 0 1-43 5.6c-8.7-2.7-17.1-8.2-21.8-16.1-3-5-4.1-11-3.5-16.7.7-6.8 4.5-13.1 9.3-17.9 7-6.7 16.5-10.7 26-12Z" fill="#fff"/><path d="M369.5 468.7c17.6-2.7 37.9 3.4 47.7 19.1 5.5 8.6 6.3 20 2 29.2-3 6.3-8 11.6-13.8 15.4a52 52 0 0 1-24.4 7.8 48.4 48.4 0 0 1-39.4-15.8 31.3 31.3 0 0 1-7.5-22.4c.5-8.3 4.6-15.7 10.5-21.4 6.9-6.5 15.6-10.3 24.9-11.9Z" fill="#000"/><path d="M376.6 474.1c9.6-.3 19.5 2.3 27.3 8 5.2 3.8 9.5 9.2 11.2 15.4a25 25 0 0 1-2.1 18.6 36.6 36.6 0 0 1-23 16.7 44.9 44.9 0 0 1-40.8-9 26.8 26.8 0 0 1-9.2-22.3c.7-5.4 3.1-10.6 6.8-14.7a41 41 0 0 1 29.8-12.7Z" fill="#fff"/><path d="M551.5 477.6a16 16 0 0 1 19.9 18.4A15.8 15.8 0 0 1 556 509a15.9 15.9 0 0 1-4.5-31.3Z" fill="#000"/><path d="M553.6 483.2c4-.7 7.8.6 10.2 4 3 4 2.3 9.8-1.4 13.2-4.4 4-11.8 3.4-15.1-1.7a10 10 0 0 1 6.3-15.5Z" fill="#fff"/><path d="M618.7 484.2c1.7.3 3.6-.2 4.6 1.4 1.6 2.5 2.4 5.6 2.9 8.5a35 35 0 0 1-9.8 29.2c-3.3 3-7.9 6-12.4 6.2-2.8 0-4.3-2.7-2.4-4.8 3.3-1.7 6.6-2.2 9.5-4.6 6.3-5.3 9.6-14 9.6-22.1 0-4-1.6-7.2-2.7-11l.7-2.8ZM380.4 488.5c4.5-.9 9.2.5 12.7 3.3a17 17 0 0 1 4.7 19.8c-2.6 5.9-8.2 10.2-14.8 10.2-8.5.6-16-6.4-16.4-14.8-1-8.7 5.2-17 13.8-18.5Z" fill="#000"/><path d="M379.5 494.8c5.1-2 11 .6 13 5.7 2.8 6.4-1.6 14.7-8.7 15.4a9.9 9.9 0 0 1-10-4.8 11.4 11.4 0 0 1 5.7-16.3Z" fill="#fff"/><path d="M330.4 503.6c.5 4-1.4 7.4-1.6 11.4-.3 6 2.4 12.1 7.3 15.9 2.4 1.9 5 2.8 7.7 4.3 2 .8 1.9 2 1.6 3.9-1.5 1.8-3.3 1.4-5.3.8a26.3 26.3 0 0 1-16-16 25 25 0 0 1 1.4-19.4c1.3-1.9 3-.9 5-.9Z" fill="#000"/></g><g transform="translate(-161 -83)"><path d="M523.2 384.4c6.2-.5 13.1-.6 18.5 3a10 10 0 0 1 4.5 10.7c-1.6 6.1-6.7 10.9-11.6 14.4a67.6 67.6 0 0 1-30.6 11.6c-5.6.5-12.5.4-17.5-2.6a10.2 10.2 0 0 1-5.2-10.3c1-5.8 5.5-10.5 10-14 9.1-7 20.5-11.3 32-12.8ZM392.2 401.2a47 47 0 0 1 26.3 5.3c3.9 2.2 7.4 5.9 8 10.5.3 4.2-2 7.8-5.3 10.2-4.5 3.6-9.8 5-15.4 6-10 1-20.6.3-29.5-4.6-3.9-2.2-7.9-5.8-8.4-10.5-.8-4.3 2-8.5 5.3-10.9a36 36 0 0 1 19-6Z" fill="#000"/></g><g transform="translate(-161 -83)"><path d="M473 557.8a84.3 84.3 0 0 1 43.7 8.6 188.2 188.2 0 0 1-65.7 15.5c-7.2 0-14.3.2-21.5-.6.7-5.9 3-9.6 7.7-13a68 68 0 0 1 35.8-10.5Z" fill="#D31E1E"/><path d="m525 563.7 1.2 2.3c.4 2.7-2 3.4-3.8 4.4a184 184 0 0 1-85.8 17c-5-.6-10.2-.7-15-2-2.3-1-2.6-4-.3-5.2 2.7 0 5.5.9 8.2 1 7.2 1 14.3.7 21.5.7 22.5-.8 45-6.8 65.7-15.5 2.8-1.2 5.2-2.6 8.3-2.7Z" fill="#000"/><path d="M510.2 575.4c-2 10.1-10.3 17.2-19.2 21.6a56.4 56.4 0 0 1-34 4.8c-8.7-1.8-16.5-6.2-20.4-14.5a184 184 0 0 0 73.7-12Z" fill="#D31E1E"/></g><g transform="translate(-161 -83)"></g><g transform="translate(-161 -83)"></g><g transform="translate(-161 -83)"><path d="M533 229.5c18.9-.7 37.8.3 56.5 2.9 15.2 2 30.2 4.2 45 8 11.8 2.7 23 6.3 34 11 11.5 5.2 22.7 10 33.6 16.5 6.7 4.1 13.2 8.7 19.3 13.7 16 13 29 30.6 40.3 47.8 9.4 15 17.6 30.9 25 47a962.7 962.7 0 0 1 39 104c10 32.8 17.2 67.2 19.3 101.6.5 13.7-.8 27.7-4.2 41-4.6 16.2-11 31.8-19.3 46.5A95.6 95.6 0 0 1 810 685c-1.7 1.7-3 3.7-5.7 2.7-2-.8-1.2-4.3-1-5.9 1.5-7.3 2.2-14.5 2.5-22A89.9 89.9 0 0 1 798 678c-6 11.2-13.6 21.4-22.5 30.5a333.7 333.7 0 0 1-70.4 52.6c-14 8.4-28.8 15.2-43.3 22.7-1.8.9-3.7 1-5-.7-1-1.5-.3-2.6.2-4.1a173.5 173.5 0 0 0 13.8-48 157.2 157.2 0 0 1-33 55.9c-1.6 2-4.6 3-6 .2 0-3.2 1.8-6.5 2.7-9.6 10-30.3 16-61.7 18.6-93.5 1.1-9.6 1.4-19.3 2.3-29 1.7-31.2 3.6-62.7 3.3-94 0-10 .2-20-.6-30a615 615 0 0 0-9-87.2 590.7 590.7 0 0 1-176.4-63.5 357.4 357.4 0 0 1-55.6-37.5c-7.6-6.4-14.9-13.3-21.3-20.9a295.7 295.7 0 0 0-52.5 49.5c-1.5 2-1.4 5.2-2 7.6-2.2 13.4-4.5 26.8-6.5 40.2-6.3 40.2-9.8 81-9.6 121.8.2 4.2-.4 8.6 1.4 12.4a218.9 218.9 0 0 0 128.8 122.1c2.2.7 3.6 1.8 5.2 3.5-3.3 4.6-8.8 7.7-13.2 11.4a409.5 409.5 0 0 0-58 57c-2 2-3.2 5.1-5.4 6.8-9 .2-18-2-27-2.7-10.4-.6-20.8-2.1-31.2-3 2.4 8 6.3 15.5 9.5 23.2 1.7 2.6-2.5 6.3-5 5a75 75 0 0 1-23-18c-12.2-14-22.9-30.2-29.4-47.7a194.9 194.9 0 0 1-11.5-47c-.7-7.3-1.7-14.6-1.8-22a501.2 501.2 0 0 1 10-110.8c3.7-20.7 8.6-41 14-61.4.7-3 2.5-6.8 1.4-9.8a146 146 0 0 1-4.5-22 122 122 0 0 1 2.2-34.5 136 136 0 0 1 11-29.8 384 384 0 0 1 33.6-53.3c7.3-9.6 15-19.1 23.4-27.7 9.2-9 19.6-16.7 30.4-23.6 11.2-7.6 26-9.4 38.9-12.1 5.5-1 10.7-3 16-4.6 4-.8 7.2-3.7 10.9-5.6 11.5-6.6 24-11.1 37.1-13.7 14.5-2.6 29.3-3.4 44-3.6Z" fill="#000"/><path d="M557 235.2c20.5 1 40.8 3.7 61 7.4 11.3 2.3 22.6 5.3 33.7 8.7a319 319 0 0 1 37.8 16.2 150 150 0 0 1 41.2 30.8c24.6 26.6 42 59.7 56.1 92.9a964 964 0 0 1 33.3 90.7A463.6 463.6 0 0 1 837 558c2.8 21.3 3.7 45-2.4 65.8A226.3 226.3 0 0 1 816 668c-1.7 3-3.8 6-6 8.7 1.3-11.2 1.6-22.5 1.5-33.7-.8-8.7.7-17.3.8-26 1-8.7 1-17.3.7-26 .1-2.8-3.5-5-4.8-1.8-.9 4.7 0 10-.5 14.8-1 14-1.2 29-4.3 42.8-4.4 22.5-17.4 43-33.4 59.2a342.3 342.3 0 0 1-71 52c-11.2 6.5-22.8 12-34.3 17.8a212.6 212.6 0 0 0 14.8-72.8c0-1.7-.6-3-1.1-4.6l-3.5.4c-.9 1-1.2 2-1.4 3.2a196.1 196.1 0 0 1-16.5 47.1c-4.4 9.1-9.8 17.4-15.7 25.5 1.8-6.8 4-13.5 5.8-20.4 9.4-34 12.3-71 14.4-106.2.8-7.3.7-14.7 1.2-22 1-13.3 1.1-26.6 1.5-40 .1-25.4.5-51.2-1.3-76.5-.9-13.2-2.4-26.3-3.9-39.4l-3.8-25.4c9.8 1.8 19.8 3 29.8 3.8 3.5.3 7.4 1 10.8.4 2.6-1.7 2-4.8-1-5.4-32.8-1.9-66-8.8-97.6-18a616.3 616.3 0 0 1-98-37.9c-19.5-9.7-39-20.5-56.8-33-18.4-12.7-37.7-28.1-50-47-1.4-2.2-3-1.6-5.2-1.2-.8 4.8 2.6 7.2 5 10.9-4.4 3.6-9 7-13.3 10.6a271.2 271.2 0 0 0-61.5 70.5c-.7 1.4-1.7 3-1.7 4.6-.4 2.3 3.4 3.5 4.5 1.4 4.5-8.4 10-16 15.7-23.8A771.8 771.8 0 0 0 319.8 552c.2 39.6 4.7 79.3 12 118.2.6 2.5 2.6 2 4.6 2.4.7-1.9 1-3.5.6-5.5-3.9-21.8-7.3-44-9-66.1-1.5-11.8-1.6-23.8-2.3-35.6A225.5 225.5 0 0 0 451 680.2c-10.7 8.3-21 16.8-30.9 26a393.7 393.7 0 0 0-38.4 42.3c-3.8-.2-7.5-.6-11.3-1.2-11.8-1.6-23.7-2.2-35.5-3.6-4-.1-9.3-1.9-12.8.3-3 2-1.8 6-.9 8.8 2.1 5.5 4.7 10.8 7 16.2a97.7 97.7 0 0 1-27-27.2c-8.2-11.3-15-23.6-19.4-36.8a190.7 190.7 0 0 1-9.1-36.2c-2-14.5-3-29.1-2.6-43.8-.4-9.7.9-19.3 1.2-29 1.5-19.8 4.1-39.5 7.9-59 4.3-23.2 9.4-46.2 15.3-69 .6-2.8 2.2-6 1.2-8.8a112.8 112.8 0 0 1-5-31.2c.3-10.2 1.3-20.2 4.3-30 5.2-17.1 14.4-33 23.9-48a365 365 0 0 1 36.9-49.1A167.8 167.8 0 0 1 389 274c12.9-8.6 30-9.5 44.6-13.7-3.4 3.4-6.9 6.6-10.4 9.7-1 1-2.8 2.4-2.6 4-.4 2.2 2.7 3 4.2 1.7 5-4.4 9.8-8.9 14.6-13.4 7-6.6 16.1-11.3 24.7-15.3 13-6 26.7-9 41-10.4 17.3-1.3 34.5-2.2 52-1.5Z" fill="#b9a05f"/></g><g transform="translate(-161 -83)"></g></g></svg>